<svg width="80" height="80" viewBox="0 0 80 80" fill="none" xmlns="http://www.w3.org/2000/svg">
<path d="M22.4073 50.7179H20.0478L19.8447 48.1852C18.9307 49.9742 16.8758 51.1152 14.3909 51.1152C9.29248 51.1152 5.94434 47.1667 5.94434 41.928C5.94434 36.6862 9.29248 32.687 14.6178 32.687C18.7037 32.687 21.4933 35.0465 22.3565 38.8725L18.3483 39.0457C17.8674 37.0327 16.5742 35.8649 14.5432 35.8649C11.3713 35.8649 9.90177 38.4753 9.90177 41.928C9.90177 45.3537 11.3981 47.9373 14.5432 47.9373C16.8758 47.9373 18.196 46.4708 18.5006 44.3114H14.5193V41.5307H22.4073V50.7179ZM30.6597 33.0842C36.4958 33.0842 39.7692 36.2651 39.7692 41.928C39.7692 47.5639 36.5465 50.7179 30.812 50.7179H24.4442V33.0842H30.6597ZM28.3001 47.54H30.6597C34.1601 47.54 35.8357 45.7271 35.8357 41.9011C35.8357 38.078 34.1601 36.2651 30.6597 36.2651H28.3001V47.54ZM48.4965 33.0842C52.8094 33.0842 55.4228 35.2705 55.4228 38.8456C55.4228 42.4237 52.8094 44.6339 48.4965 44.6339H45.1484V50.7179H41.2925V33.0842H48.4965ZM45.1484 41.456H48.2695C50.2975 41.456 51.4653 40.56 51.4653 38.8456C51.4653 37.1342 50.2975 36.2651 48.2695 36.2651H45.1484V41.456ZM65.1894 33.0842C68.9199 33.0842 71.6587 34.9718 71.6587 38.3737C71.6587 40.6108 70.3416 42.1251 68.3883 42.6209C70.3147 42.8449 71.2286 43.7409 71.381 45.6524L71.8379 50.7179H67.9552L67.5997 46.2976C67.4743 44.7594 66.638 44.2606 64.5324 44.2606H61.1573V50.7179H57.3014V33.0842H65.1894ZM61.1573 41.1066H64.6339C66.6111 41.1066 67.7013 40.2375 67.7013 38.6963C67.7013 37.1342 66.638 36.2651 64.6339 36.2651H61.1573V41.1066Z" fill="#F7F7FF"></path>
<path d="M39.6946 0L41.0326 2.27291L43.7775 2.75079L41.857 4.63244L42.2184 7.20105L39.6946 6.08998L37.1678 7.20105L37.5262 4.63244L35.6057 2.75079L38.3535 2.27291L39.6946 0ZM23.3511 4.7997L24.6892 7.0756L27.434 7.55049L25.5165 9.43215L25.8749 12.0007L23.3511 10.8897L20.8273 12.0007L21.1857 9.43215L19.2622 7.55049L22.013 7.0756L23.3511 4.7997ZM10.2751 15.1996L11.6162 17.4755L14.361 17.9503L12.4405 19.832L12.8019 22.4006L10.2751 21.2895L7.75132 22.4006L8.10973 19.832L6.18925 17.9503L8.93705 17.4755L10.2751 15.1996ZM69.111 15.1996L70.4491 17.4755L73.1939 17.9503L71.2764 19.832L71.6348 22.4006L69.111 21.2895L66.5843 22.4006L66.9457 19.832L65.0252 17.9503L67.773 17.4755L69.111 15.1996ZM56.0351 4.7997L57.3761 7.0756L60.1209 7.55049L58.2005 9.43215L58.5619 12.0007L56.0351 10.8897L53.5113 12.0007L53.8697 9.43215L51.9492 7.55049L54.697 7.0756L56.0351 4.7997ZM39.6946 72.8019L41.0326 75.0749L43.7775 75.5527L41.857 77.4344L42.2184 80L39.6946 78.8889L37.1678 80L37.5262 77.4344L35.6057 75.5527L38.3535 75.0749L39.6946 72.8019ZM23.3511 68.0022L24.6892 70.2752L27.434 70.753L25.5165 72.6347L25.8749 75.2003L23.3511 74.0922L20.8273 75.2003L21.1857 72.6347L19.2622 70.753L22.013 70.2752L23.3511 68.0022ZM10.2751 57.5994L11.6162 59.8753L14.361 60.3502L12.4405 62.2319L12.8019 64.8005L10.2751 63.6924L7.75132 64.8005L8.10973 62.2319L6.18925 60.3502L8.93705 59.8753L10.2751 57.5994ZM69.111 57.5994L70.4491 59.8753L73.1939 60.3502L71.2764 62.2319L71.6348 64.8005L69.111 63.6924L66.5843 64.8005L66.9457 62.2319L65.0252 60.3502L67.773 59.8753L69.111 57.5994ZM56.0351 68.0022L57.3761 70.2752L60.1209 70.753L58.2005 72.6347L58.5619 75.2003L56.0351 74.0922L53.5113 75.2003L53.8697 72.6347L51.9492 70.753L54.697 70.2752L56.0351 68.0022Z" fill="#F7F7FF"></path>
</svg>