<svg width="128" height="21" viewBox="0 0 128 21" fill="none" xmlns="http://www.w3.org/2000/svg">
<path fill-rule="evenodd" clip-rule="evenodd" d="M120.059 0.707202H108.777L102.868 15.3073L102.887 0.688832H95.2943V20.3037H108.572L109.766 17.3218H119.238L120.597 20.3037H128L120.059 0.707202ZM86.4038 11.2417L78.3858 0.688832H68.7637V15.2522L62.7234 0.710262H51.5919L46.9323 12.3622H39.9767C39.398 14.8053 38.0755 15.8829 35.6692 15.8829C32.9108 15.8829 31.0464 13.8317 31.0464 10.7764C31.0464 6.80565 32.6108 4.75447 35.6141 4.75447C38.0755 4.75447 39.4715 5.85659 39.9001 8.14657H47.7895L47.8079 7.84961C47.8079 3.11352 43.0167 0 35.7243 0C27.9328 0 24.2407 3.04004 23.607 10.011C22.4865 8.79866 20.6588 7.84961 19.2811 7.73633L16.336 7.47611L11.9887 7.40264C10.1243 7.3659 9.06195 6.71074 9.06195 5.61167C9.06195 4.36259 10.1457 3.67377 12.1234 3.67377C14.395 3.67377 15.3073 4.51261 15.3073 6.58216H23.6039V6.31888C23.6039 2.27161 19.6914 0.033681 12.5857 0.033681C4.69936 0.033681 0.841904 2.19814 0.841904 6.5791C0.841904 10.3263 3.67376 12.3408 9.10175 12.4877L12.3255 12.5643C14.6951 12.6377 15.7543 13.2164 15.7543 14.4654C15.7543 15.5278 14.2664 16.535 12.7173 16.535C10.0141 16.535 8.5966 15.6043 8.5966 13.8501H0V14.0338C0 18.2892 4.28912 20.6159 12.0836 20.6159C19.5965 20.6159 23.2886 18.978 24.4826 15.0808C26.8889 19.1832 30.0208 20.6741 36.1161 20.6741C39.995 20.6741 42.0095 20.1322 44.526 18.3076L43.7239 20.3006H51.0531L52.394 17.2422H62.0162L63.302 20.2639H75.8693V8.64865L84.7996 20.3006H93.6932V0.707202H86.4038V11.2417ZM111.799 12.399L114.389 5.90864L117.334 12.3622L111.799 12.399ZM54.4084 12.399L57.0168 5.70658L60.0017 12.399H54.4084Z" fill="#07061A"></path>
</svg>