<svg width="81" height="80" viewBox="0 0 81 80" fill="none" xmlns="http://www.w3.org/2000/svg">
<path d="M80 39.2004C79.9771 60.8273 62.0511 78.3421 39.9608 78.3226C17.8967 78.303 0.0163391 60.7946 2.18569e-05 39.1906C-0.0228222 17.5671 17.8641 0.0195806 39.9478 0H40.0359C62.1294 0.0195806 80.0196 17.5671 80 39.2004ZM53.4127 59.2641L54.6561 54.6691H55.1717C55.547 54.6626 55.9191 54.6659 56.2911 54.6757C56.8394 54.63 57.3876 54.6626 57.9261 54.7703C57.5508 56.6729 57.0776 58.5592 56.5065 60.4193C56.9666 60.6673 57.43 60.9088 57.8869 61.1536C58.8953 61.6823 59.8874 62.2012 60.8469 62.7788C61.8194 63.3727 62.7755 63.996 63.7122 64.6487C64.1136 64.9196 64.5117 65.1905 64.9131 65.4548C81.1291 50.9064 80.1175 26.1597 64.8478 12.8286C62.273 14.8128 59.4664 16.4934 56.4836 17.8314C57.0515 19.7993 57.5899 21.679 57.9457 23.6208H54.6267L54.4342 22.8637C54.3037 22.348 54.1764 21.8487 54.0361 21.3494C53.8631 20.5727 53.6347 19.8123 53.3442 19.0715C44.6896 22.0739 35.2419 22.0674 26.5905 19.0585L25.3406 23.6632H23.7024C23.2977 23.6599 22.893 23.6567 22.4427 23.6469L21.9793 23.6404L23.487 17.8151C20.514 16.4836 17.714 14.803 15.1489 12.8155C-0.965956 27.204 -0.28716 51.9507 15.1489 65.4874C17.7303 63.5 20.5434 61.8193 23.5262 60.4748C22.9289 58.5722 22.4329 56.6435 22.0446 54.692H25.3569L26.5905 59.2673C35.2647 56.2486 44.7352 56.2486 53.4095 59.2641H53.4127ZM48.0444 8.1227C46.9315 6.61173 45.5283 5.32593 43.9129 4.33711C41.6611 2.90772 38.7827 2.8294 36.4526 4.13478C34.9547 4.95716 33.633 6.05694 32.5626 7.37537C30.8428 9.45745 29.4428 11.7712 28.4017 14.2482C28.2386 14.6202 28.0819 14.9988 27.9187 15.3969L27.674 15.9909C35.6205 18.7811 44.3077 18.7909 52.2607 16.0137C52.2412 15.8864 52.2118 15.7624 52.1792 15.6384C51.1642 12.9559 49.7707 10.43 48.0444 8.1227ZM27.7621 62.4883C27.7817 62.5601 27.8045 62.6319 27.8306 62.7037C28.7803 65.1905 30.0465 67.5467 31.6032 69.7201C32.6214 71.156 33.868 72.4223 35.2974 73.4731C38.2965 75.6139 41.5501 75.6433 44.5786 73.5547C45.6164 72.8302 46.5497 71.9719 47.3656 71.0124C49.4346 68.5061 51.0663 65.68 52.1922 62.6515C52.2216 62.534 52.2444 62.4165 52.2542 62.2958C44.3175 59.5317 35.6498 59.5349 27.7131 62.3056C27.7295 62.3643 27.749 62.4263 27.7621 62.4851V62.4883ZM55.4883 63.6044L54.6561 65.2851C54.0426 66.5317 53.4356 67.7588 52.7894 68.9597C51.8202 70.6926 50.6714 72.3243 49.3563 73.8255C54.0556 72.6703 58.458 70.5719 62.2926 67.6642C60.1876 66.0618 57.9032 64.701 55.4883 63.6044ZM25.3472 65.2949C25.073 64.7336 24.7989 64.169 24.515 63.6012C22.0935 64.701 19.8124 66.0651 17.7042 67.6642C21.5518 70.5751 25.9672 72.6768 30.6796 73.8419C29.3514 72.357 28.1929 70.7318 27.2269 68.9989C26.5677 67.7882 25.9607 66.5481 25.3472 65.2949ZM62.1881 10.5703C58.3764 7.69845 53.9969 5.62291 49.3269 4.47744C52.0225 7.49938 53.8696 10.9782 55.3675 14.7051C57.1331 14.1209 61.5713 11.4318 62.1881 10.5703ZM17.7433 10.6258C19.114 11.8724 23.3565 14.3657 24.652 14.679C26.039 10.9815 28.0558 7.54181 30.6143 4.50355C25.9411 5.65554 21.555 7.73762 17.7433 10.6258ZM64.8837 48.8406C63.3303 49.4411 61.6856 49.7805 60.0179 49.8393C58.0729 49.9894 56.1214 49.7838 54.2547 49.229C50.2211 47.9628 47.8061 45.3031 47.1926 41.1552C46.8859 39.2657 47.0099 37.3337 47.5516 35.4964C48.3707 32.6964 50.4985 30.4446 53.2855 29.4264C55.6776 28.5355 58.2524 28.2255 60.7946 28.5257C62.2501 28.6204 63.6828 28.9598 65.0241 29.5243C68.2059 30.8101 70.425 33.6852 70.8199 37.0303C70.8885 37.523 70.9374 38.0191 70.97 38.5184L71.0255 39.1972C71.0451 41.0182 70.6306 42.8229 69.818 44.4611C68.7737 46.4616 67.018 48.0182 64.8837 48.8406ZM62.8963 36.2862C62.8114 35.1995 62.5145 34.1388 62.0086 33.1663C61.4539 32.0829 60.3019 31.4139 59.065 31.4563C57.8021 31.3943 56.6207 32.06 56.0365 33.1565C55.6286 33.9202 55.361 34.7491 55.2501 35.6041C54.9237 37.7123 54.8845 39.8531 55.1326 41.9678C55.2109 42.9403 55.4459 43.8933 55.8342 44.794C56.3694 46.0145 57.5834 46.8173 58.941 46.8467C60.2986 46.8728 61.5485 46.1222 62.1359 44.9245C62.3513 44.4742 62.5177 44.001 62.632 43.518C62.9452 42.0951 63.1019 40.6494 63.1019 39.1972L63.0497 38.3258C63.0105 37.647 62.9714 36.9617 62.8963 36.2862ZM40.4145 34.9384C39.6541 32.9412 38.1235 31.923 36.0121 31.7011C35.2093 31.5803 34.3869 31.6227 33.6004 31.8283C33.088 31.9752 32.6214 32.2526 32.2591 32.6377C31.5053 33.4503 31.5869 34.3705 32.543 34.9384C33.1011 35.2615 33.7016 35.5062 34.3249 35.6629C35.0069 35.8489 35.6988 36.0055 36.3906 36.1622C37.0303 36.309 37.6699 36.4559 38.303 36.6223C39.8368 36.9846 41.2988 37.5818 42.6401 38.3944C44.0826 39.2722 45.0061 40.7734 45.1236 42.4345C45.3684 44.1152 44.8854 45.8252 43.7921 47.1436C42.9599 48.0998 41.8765 48.8178 40.6625 49.2159C39.034 49.7511 37.3142 49.9665 35.6009 49.8458C33.5841 49.7381 31.6097 49.2388 29.792 48.3772C29.7332 48.3511 29.6712 48.3283 29.6092 48.3087C29.57 48.2956 29.5309 48.2826 29.4917 48.2695L28.7183 49.3367H25.9868V41.9417C26.46 41.8699 26.9364 41.8503 27.4129 41.883C27.7295 41.8765 28.046 41.8797 28.3789 41.8797H28.8554L28.9369 42.0918C29.0022 42.2583 29.0609 42.4182 29.1295 42.5781C30.0824 44.794 31.6782 46.2788 34.1389 46.7422C34.958 46.9283 35.8065 46.9087 36.6191 46.69C37.0596 46.5628 37.4708 46.3572 37.8363 46.083C38.2508 45.7926 38.4988 45.3259 38.4988 44.8266C38.4956 44.3306 38.2508 43.8606 37.8363 43.5734C37.2424 43.1427 36.5832 42.8065 35.8848 42.5748C35.0951 42.3138 34.2988 42.0723 33.496 41.8536C32.9183 41.6937 32.3407 41.524 31.7663 41.3478C30.8167 41.0671 29.8801 40.7375 28.963 40.359C27.2236 39.6018 25.9476 38.3683 25.5625 36.495C24.9425 33.5057 26.2283 30.9048 29.0283 29.4591C30.2293 28.8586 31.5477 28.5225 32.8922 28.4702C35.4475 28.2842 38.006 28.7411 40.3296 29.7887C40.3818 29.8148 40.4406 29.8344 40.5156 29.8637L40.6527 29.9127L41.2205 28.9859H44.0924V35.888L42.4704 35.9044H40.7669L40.4145 34.9384ZM11.3992 49.2192V46.4387H11.7353C11.9964 46.4387 12.251 46.442 12.5023 46.4355C12.7568 46.4355 13.0114 46.4126 13.2626 46.3735C13.6477 46.3343 13.9545 46.0406 13.9969 45.6653C14.0524 45.3749 14.0883 45.0844 14.1046 44.7907C14.1111 41.0247 14.1111 37.2587 14.1046 33.4959C14.1013 32.1645 13.7783 31.861 12.4174 31.8349H11.768L11.3992 31.8381V29.0707H23.4609C23.6208 29.9682 23.6339 30.8885 23.5 31.7924L23.3565 31.8055L22.9779 31.8414C22.8702 31.8446 22.7625 31.8446 22.6516 31.8446H22.4231C21.183 31.8871 20.8893 32.1481 20.8893 33.3458C20.8762 37.1999 20.8762 41.0541 20.8893 44.9115C20.8926 46.1483 21.1863 46.4126 22.459 46.4387C22.6842 46.442 22.9094 46.4387 23.1509 46.4387H23.5457V49.2192H11.3992Z" fill="#F7F7FF"></path>
</svg>