<svg width="128" height="32" viewBox="0 0 128 32" fill="none" xmlns="http://www.w3.org/2000/svg">
<path fill-rule="evenodd" clip-rule="evenodd" d="M4.07833 25.4507L6.18626 19.7262L8.19703 25.4507H4.07833ZM10.2454 31.2182H12.1775L7.16188 17.4397H5.25032L0 31.2182H1.95193L3.49337 26.9955H8.74368L10.2454 31.2182ZM16.3797 26.4598C14.5885 26.0726 12.7392 25.6498 12.7392 23.4892C12.7392 21.592 14.3436 20.396 16.7669 20.396C18.3344 20.396 19.832 20.9796 20.5784 22.4068L18.9488 23.0869C18.8181 22.7058 17.9745 21.7459 16.5665 21.7459C15.1872 21.7459 14.4975 22.5628 14.4975 23.2689C14.4975 24.2616 15.8084 24.6735 16.9277 24.8992C19.2429 25.3658 21.2571 25.9576 21.2571 28.1408C21.2571 29.8389 19.7499 31.431 16.8709 31.431C14.7514 31.431 13.2455 30.7229 12.5217 29.2423L14.3799 28.9174C14.8465 29.7302 15.6901 30.0811 16.9469 30.0811C18.5054 30.0811 19.4174 29.4866 19.4174 28.3611C19.4174 27.1707 17.9211 26.7937 16.3797 26.4598ZM25.1172 20.7142H27.0206V22.1797H25.1172V28.1395C25.1172 29.3758 25.1172 29.906 25.8691 29.906C26.2009 29.906 26.6669 29.7726 27.0206 29.6631V31.1142C26.7107 31.158 25.9793 31.2894 25.3149 31.2894C23.2789 31.2894 23.2789 30.3021 23.3014 28.9351V22.1803H21.641V20.7149H23.3014V18.2122L25.1172 17.4562V20.7142ZM30.3648 20.7402V22.6155C31.3596 20.6375 33.2417 20.5917 33.9505 20.5698V22.3856C32.2244 22.3979 31.3774 22.7516 30.8075 23.6794C30.3402 24.4381 30.3648 25.502 30.3648 26.4024V31.2182H28.6065V20.7402H30.3648ZM54.2731 17.4418V19.1604L46.4756 29.5653H54.4688V31.2182H44.3465V29.4284L52.183 19.1406H44.3533V17.4418H54.2731ZM67.247 20.8127V22.3343C68.2247 20.6239 69.8913 20.4686 70.5132 20.4686C71.8467 20.4686 73.4442 21.1356 73.9539 22.8645C74.1325 23.4844 74.1325 24.1248 74.1325 25.0094V31.2175H72.3796V25.2967C72.3796 24.2342 72.3796 23.9257 72.2688 23.5726C71.9582 22.5772 70.9805 22.1359 70.024 22.1359C69.2468 22.1359 68.5805 22.3781 68.0235 22.9309C67.2463 23.7033 67.2463 24.4983 67.2463 25.2748V31.2175H65.4873V20.8127H67.247ZM94.3517 29.3634C93.6956 30.3938 92.5038 31.4303 90.3582 31.4303C86.6555 31.4303 85.2571 28.5773 85.2571 26.0144C85.2571 23.052 86.869 20.368 90.2036 20.368C91.5124 20.368 93.3446 20.7621 94.3586 22.4506L92.7111 23.1389C92.3991 22.4533 91.7293 21.6597 90.27 21.6597C87.3807 21.6597 87.2111 24.9519 87.2111 25.8824C87.2111 29.334 89.1952 30.0811 90.3794 30.0811C91.7362 30.0811 92.4292 29.4291 92.7953 28.7128L94.3517 29.3634ZM56.9947 24.9068H62.5509C62.3956 22.166 60.8158 21.7035 59.7629 21.7035C58.2584 21.7035 57.1938 22.8077 56.9947 24.9068ZM63.9979 29.228C63.3979 30.2474 62.2416 31.418 59.9606 31.418C56.8675 31.418 55.0886 29.3162 55.0886 25.7934C55.0886 21.8567 57.6851 20.3522 59.8949 20.3522C61.8161 20.3522 63.6578 21.4141 64.277 24.044C64.4768 24.9287 64.4768 25.7264 64.4768 26.1697H56.9509C56.9065 27.9192 57.6406 30.1345 60.1159 30.09C61.1251 30.0743 61.8366 29.6159 62.2902 28.8968L63.9979 29.228ZM76.982 24.9068H82.5382C82.3836 22.166 80.8038 21.7035 79.7495 21.7035C78.2478 21.7035 77.1811 22.8077 76.982 24.9068ZM83.9852 29.228C83.3859 30.2474 82.2296 31.418 79.9486 31.418C76.8562 31.418 75.0766 29.3162 75.0766 25.7934C75.0766 21.8567 77.6731 20.3522 79.8829 20.3522C81.8041 20.3522 83.6445 21.4141 84.265 24.044C84.4634 24.9287 84.4634 25.7264 84.4634 26.1697H76.9376C76.8938 27.9192 77.63 30.1345 80.1019 30.09C81.1117 30.0743 81.8253 29.6159 82.2768 28.8968L83.9852 29.228ZM103.961 31.2299L102.133 31.2367C102.133 31.2367 101.974 30.4978 101.923 29.6918C101.393 30.244 100.407 31.3852 98.4164 31.3852C96.3803 31.3852 94.8697 30.1769 94.8697 28.4077C94.8697 27.8528 95.025 27.3 95.3356 26.8334C95.9356 25.9474 97.0453 25.2393 100.164 24.9957L101.822 24.8637V24.5975C101.822 23.5124 101.821 21.698 99.4857 21.698C98.0155 21.698 97.514 22.4102 97.345 23.0527L95.7262 22.3781C95.7509 22.322 95.781 22.2645 95.8118 22.2057C96.4337 21.0549 97.6535 20.3461 99.418 20.3461C100.389 20.3461 101.646 20.5903 102.466 21.2321C103.632 22.116 103.604 23.8572 103.604 23.8572L103.675 29.2307C103.675 29.2307 103.737 30.792 103.961 31.2299ZM101.557 28.3413C101.822 27.7652 101.845 27.5223 101.845 25.9919C101.161 26.1041 100.235 26.2347 99.1019 26.481C97.1548 26.9004 96.823 27.6332 96.823 28.3639C96.823 29.2054 97.4866 29.9142 98.792 29.9142C100.01 29.9135 101.049 29.4271 101.557 28.3413ZM43.1061 31.2299L41.278 31.2367C41.278 31.2367 41.1186 30.4978 41.0686 29.6918C40.537 30.244 39.5532 31.3852 37.5623 31.3852C35.5255 31.3852 34.0148 30.1769 34.0148 28.4077C34.0148 27.8528 34.1702 27.3 34.4815 26.8334C35.0815 25.9474 36.1912 25.2393 39.3089 24.9957L40.9687 24.8637V24.5975C40.9687 23.5124 40.9687 21.698 38.6303 21.698C37.16 21.698 36.6605 22.4102 36.4888 23.0527L34.8707 22.3781C34.8974 22.322 34.9255 22.2645 34.9569 22.2057C35.5795 21.0549 36.7994 20.3461 38.5632 20.3461C39.534 20.3461 40.7922 20.5903 41.6112 21.2321C42.7777 22.116 42.7496 23.8572 42.7496 23.8572L42.8201 29.2307C42.8201 29.2307 42.8817 30.792 43.1061 31.2299ZM40.7019 28.3413C40.9687 27.7652 40.99 27.5223 40.99 25.9919C40.3072 26.1041 39.3801 26.2347 38.2478 26.481C36.302 26.9004 35.9702 27.6332 35.9702 28.3639C35.9702 29.2054 36.6332 29.9142 37.9386 29.9142C39.1536 29.9135 40.1936 29.4271 40.7019 28.3413Z" fill="#07061A"></path>
<path fill-rule="evenodd" clip-rule="evenodd" d="M127.986 16.7152C127.979 16.6516 127.973 16.5866 127.956 16.525C127.926 16.3972 127.887 16.2715 127.84 16.1487C127.786 16.0192 127.724 15.8937 127.653 15.7731C127.575 15.6398 127.491 15.5107 127.399 15.3865C127.345 15.3137 127.286 15.2446 127.223 15.1799C127.153 15.1061 127.079 15.0369 127 14.9726C126.82 14.8303 126.642 14.6853 126.447 14.5655C126.02 14.3035 125.595 14.0312 125.136 13.8294C124.582 13.5858 124.046 13.2971 123.475 13.0987L119.625 11.7618C119.625 11.0304 119.647 10.2977 119.625 9.56563C119.598 8.47941 119.545 7.394 119.466 6.31036C119.405 5.5562 119.316 4.80464 119.198 4.05739C119.106 3.47448 118.967 2.89977 118.838 2.32438C118.809 2.19234 118.764 2.0644 118.72 1.93715C118.647 1.71723 118.557 1.50297 118.452 1.29608C118.407 1.20779 118.358 1.12151 118.305 1.03746C118.214 0.892488 118.11 0.756017 117.994 0.629698C117.943 0.575085 117.89 0.522803 117.834 0.47302C117.737 0.386319 117.632 0.309327 117.52 0.24314C117.471 0.213222 117.419 0.187147 117.366 0.165146C117.273 0.12517 117.179 0.0908966 117.082 0.0625198C116.941 0.0253027 116.797 0.0048654 116.652 0.00163081C116.546 0.000262467 116.439 -0.00247609 116.334 0.00504977C116.222 0.013047 116.11 0.0279001 116 0.0495225C115.754 0.0956953 115.515 0.176064 115.291 0.288297C115.028 0.425388 114.775 0.583247 114.537 0.760375C114.323 0.921839 114.103 1.07851 113.909 1.26187C113.104 2.01624 112.316 2.78748 111.544 3.57505C111.13 3.99277 110.735 4.42856 110.359 4.88112C108.876 6.67638 107.4 8.47849 105.973 10.3189C105.34 11.1358 104.77 11.9999 104.183 12.8496C104.037 13.0624 103.899 13.282 103.774 13.5071C103.556 13.9015 103.347 14.3009 103.147 14.7051C103.096 14.8109 103.052 14.9196 103.014 15.0308C102.975 15.1358 102.941 15.2427 102.913 15.351C102.887 15.4529 102.865 15.5569 102.853 15.6616C102.843 15.7584 102.841 15.8559 102.847 15.953C102.863 16.0535 102.896 16.1502 102.947 16.2383C102.975 16.2883 103.009 16.3355 103.043 16.38C103.082 16.4292 103.121 16.4771 103.165 16.5209C103.26 16.6146 103.357 16.7063 103.46 16.7911C103.566 16.8787 103.676 16.9622 103.791 17.0375C103.991 17.1688 104.198 17.2906 104.404 17.4117C104.495 17.4644 104.59 17.5088 104.682 17.5574C104.646 17.5371 104.61 17.5175 104.573 17.4986C104.579 17.5006 104.584 17.5041 104.589 17.5068L104.742 17.5861C106.009 18.2484 107.282 18.9011 108.543 19.5737C109.812 20.2496 111.08 20.9276 112.332 21.6316L115.149 23.2148C114.171 23.9551 113.175 24.67 112.216 25.4343C111.853 25.7297 111.506 26.0456 111.179 26.3805C110.909 26.6493 110.654 26.9325 110.415 27.2288C110.224 27.4642 110.049 27.7153 109.886 27.9705C109.759 28.1709 109.646 28.3823 109.545 28.5972C109.469 28.76 109.408 28.9297 109.354 29.1007C109.317 29.2216 109.288 29.3448 109.268 29.4695C109.254 29.5441 109.252 29.6221 109.247 29.698C109.246 29.7233 109.251 29.75 109.252 29.7753C109.253 29.8451 109.249 29.9128 109.253 29.9826C109.261 30.1081 109.281 30.2325 109.313 30.3541C109.344 30.4657 109.387 30.5737 109.441 30.6764C109.467 30.7256 109.493 30.7756 109.527 30.8194C109.592 30.9076 109.657 30.9959 109.735 31.0746C109.812 31.1532 109.897 31.223 109.986 31.288C110.075 31.3537 110.17 31.4125 110.268 31.4645C110.366 31.5193 110.469 31.5644 110.573 31.6075C110.675 31.6499 110.78 31.6971 110.889 31.7197C111.282 31.8066 111.678 31.8867 112.078 31.9414C112.274 31.9667 112.473 31.979 112.67 31.9626C113.351 31.9132 114.029 31.8369 114.704 31.7341C115.492 31.6109 116.274 31.4454 117.052 31.2743C117.972 31.076 118.887 30.8582 119.797 30.6209C120.44 30.4526 121.095 30.3028 121.71 30.0517C122.195 29.854 122.685 29.6658 123.166 29.4572C123.274 29.412 123.376 29.3518 123.478 29.2916C123.569 29.2382 123.66 29.1808 123.746 29.1192C123.822 29.0645 123.897 29.0084 123.965 28.9427C124.022 28.8893 124.075 28.8291 124.121 28.7648C124.197 28.6605 124.251 28.5418 124.28 28.4159C124.292 28.361 124.298 28.305 124.297 28.2489C124.297 28.1942 124.291 28.1408 124.281 28.0875C124.259 27.9829 124.22 27.8827 124.166 27.7905C124.113 27.6966 124.05 27.6091 123.978 27.5299C123.906 27.4553 123.835 27.38 123.759 27.3123C123.692 27.2551 123.622 27.2012 123.55 27.1508C123.479 27.1015 123.407 27.0548 123.332 27.0106C122.831 26.7075 122.332 26.3996 121.827 26.102L119.713 24.8527C120.996 23.9818 122.293 23.1266 123.564 22.2378C124.11 21.8602 124.642 21.4636 125.159 21.0487C125.599 20.6889 126.024 20.3121 126.434 19.9192C126.63 19.7338 126.805 19.5271 126.983 19.3239C127.063 19.2316 127.138 19.1331 127.208 19.0332C127.274 18.9415 127.34 18.8505 127.39 18.7506C127.556 18.4222 127.719 18.0918 127.857 17.7504C127.913 17.6122 127.936 17.4616 127.966 17.3159C127.981 17.2475 127.987 17.1784 127.993 17.1093C127.999 17.0429 128.001 16.9759 128 16.9095C127.998 16.8446 127.994 16.7797 127.986 16.7152ZM112.202 8.07277C112.917 7.3274 113.638 6.58825 114.366 5.85538C114.498 5.72129 114.647 5.60224 114.789 5.4784C114.839 5.43524 114.89 5.39372 114.943 5.35389C114.984 5.32241 115.024 5.29026 115.067 5.2629C115.131 5.2234 115.201 5.19516 115.274 5.17943C115.314 5.17372 115.355 5.17211 115.395 5.17463C115.416 5.17602 115.436 5.18016 115.456 5.18695C115.526 5.21073 115.588 5.25364 115.634 5.31079C115.655 5.33405 115.674 5.35867 115.691 5.38467C115.71 5.41478 115.73 5.44556 115.743 5.47909C115.777 5.57008 115.809 5.66245 115.832 5.75618C115.865 5.89164 115.892 6.0278 115.913 6.166C115.964 6.50261 116.013 6.8399 116.051 7.17788C116.099 7.61575 116.135 8.05567 116.176 8.49423L116.393 10.8293L113.791 10.2306L111.363 9.83109L110.776 9.78594L110.585 9.78046C111.123 9.21123 111.658 8.6379 112.202 8.07277ZM110.57 11.3198L110.58 11.3055L110.593 11.298L110.613 11.2959L110.644 11.3007L110.735 11.3267L110.97 11.417L111.29 11.5586L113.771 12.6191C114.319 12.8524 114.868 13.0843 115.415 13.3183L116.498 13.7808L116.595 13.8246C116.653 14.6805 116.723 15.5357 116.769 16.3916C116.804 17.0607 116.819 17.7312 116.836 18.401C116.837 18.4851 116.83 18.57 116.825 18.6541C116.822 18.702 116.816 18.7492 116.81 18.7964C116.796 18.89 116.769 18.981 116.729 19.0667C116.706 19.1068 116.679 19.1446 116.649 19.1796C116.634 19.1974 116.614 19.2124 116.596 19.2268C116.576 19.242 116.556 19.2557 116.534 19.2678C116.452 19.309 116.363 19.3313 116.271 19.3328C116.234 19.3342 116.197 19.3328 116.16 19.3287C116.121 19.3234 116.083 19.3156 116.045 19.3055C116.004 19.2963 115.964 19.2839 115.925 19.2685C115.84 19.2338 115.758 19.1943 115.678 19.1502C115.587 19.0984 115.5 19.0412 115.416 18.9791C115.323 18.9104 115.234 18.8376 115.148 18.7609C115.053 18.6789 114.962 18.5923 114.875 18.5016C114.686 18.3018 114.504 18.096 114.329 17.8845C114.015 17.5006 113.689 17.1243 113.413 16.7118C113.033 16.1439 112.642 15.5829 112.272 15.0089C112.053 14.6654 111.825 14.324 111.641 13.9594L110.806 12.3037L110.625 11.7762L110.585 11.6188L110.56 11.4683L110.558 11.3588L110.57 11.3198ZM119.801 25.9891C120.025 26.1321 120.252 26.2724 120.474 26.4181C120.76 26.6062 121.048 26.7951 121.326 26.9955C121.525 27.1399 121.716 27.2959 121.905 27.4553C121.989 27.5264 122.067 27.6038 122.142 27.6838C122.203 27.7509 122.256 27.8241 122.31 27.8952C122.314 27.8993 122.314 27.9075 122.314 27.9123C122.314 27.925 122.312 27.9377 122.309 27.9499C122.306 27.9577 122.301 27.9646 122.295 27.9698C122.287 27.9777 122.278 27.984 122.268 27.9883C122.235 27.9992 122.201 28.0061 122.167 28.0088C121.069 28.0916 119.97 28.1661 118.874 28.253L114.586 28.5896L114.453 28.5979L114.515 28.5308L114.784 28.2927C115.341 27.8788 115.879 27.4402 116.452 27.053L118.88 25.4055L119.801 25.9891ZM123.103 17.5485C123.077 17.6341 123.035 17.7138 122.979 17.7832C122.906 17.8708 122.827 17.9539 122.744 18.0322C122.565 18.1957 122.388 18.3634 122.191 18.5029C121.508 18.986 120.835 19.4806 120.145 19.952C119.67 20.277 119.181 20.5808 118.697 20.8927L115.879 22.7024C115.481 22.4725 115.082 22.244 114.683 22.0155L109.582 19.1002C108.429 18.4119 107.271 17.7353 106.126 17.034C105.911 16.9027 105.708 16.7494 105.502 16.6023C105.436 16.5558 105.375 16.5024 105.313 16.4532C105.293 16.4374 105.271 16.4251 105.253 16.408C105.208 16.3686 105.165 16.3271 105.125 16.2835C105.049 16.1972 104.997 16.0928 104.973 15.9804C104.967 15.9393 104.967 15.8977 104.972 15.8566C104.979 15.8117 104.991 15.7677 105.006 15.7252C105.023 15.6801 105.044 15.6342 105.069 15.5918C105.119 15.5049 105.175 15.421 105.235 15.3407C105.306 15.2491 105.382 15.1617 105.463 15.0787C106.122 14.4 106.791 13.7309 107.453 13.0556L109.239 11.2343L109.323 11.5285L109.541 12.0457L109.555 12.0772C110.027 12.8955 110.471 13.7309 110.972 14.532C111.547 15.4529 112.164 16.3471 112.782 17.24C113.071 17.658 113.374 18.0678 113.693 18.4646C113.97 18.8101 114.256 19.1502 114.568 19.4656C114.841 19.7433 115.14 19.9965 115.443 20.24C115.595 20.3611 115.764 20.4576 115.929 20.5575C116.159 20.6884 116.407 20.7831 116.665 20.838C116.873 20.8825 117.088 20.8899 117.299 20.8599C117.468 20.8346 117.631 20.7787 117.78 20.695C117.823 20.6704 117.868 20.6451 117.908 20.6143C117.983 20.5593 118.055 20.4999 118.123 20.4364C118.181 20.3817 118.233 20.3215 118.282 20.2578C118.343 20.1778 118.398 20.0929 118.45 20.0074C118.582 19.7834 118.692 19.5464 118.777 19.3C118.865 19.0284 118.95 18.7554 119.017 18.4783C119.108 18.1027 119.21 17.7271 119.25 17.3433L119.481 15.1184C120.009 15.3647 120.548 15.587 121.064 15.8559C121.568 16.1186 122.05 16.4224 122.54 16.7132C122.596 16.7474 122.65 16.787 122.702 16.8295C122.774 16.8897 122.844 16.9533 122.91 17.021C122.978 17.092 123.034 17.175 123.072 17.266C123.09 17.3104 123.101 17.3576 123.111 17.4042C123.114 17.4275 123.114 17.4512 123.112 17.4746C123.112 17.4995 123.109 17.5244 123.103 17.5485Z" fill="#07061A"></path>
</svg>