<svg width="106" height="30" viewBox="0 0 106 30" fill="none" xmlns="http://www.w3.org/2000/svg">
<path d="M11.4578 4.9664V13.425H3.68687V4.9664H0V25.1584H3.68787V16.9742H11.4569V25.1584H15.1457V4.9664H11.4578ZM26.9499 18.632C26.9499 19.4413 26.6284 20.2175 26.0561 20.7898C25.4838 21.3621 24.7076 21.6836 23.8983 21.6836C23.089 21.6836 22.3128 21.3621 21.7405 20.7898C21.1682 20.2175 20.8467 19.4413 20.8467 18.632V9.9827H17.3485V18.632C17.3485 20.3674 18.0378 22.0317 19.265 23.2588C20.4921 24.4859 22.1564 25.1753 23.8918 25.1753C25.6272 25.1753 27.2915 24.4859 28.5187 23.2588C29.7458 22.0317 30.4352 20.3674 30.4352 18.632V9.9827H26.9499V18.632ZM52.8708 10.874C52.8708 9.1004 54.0435 8.53849 55.328 8.53849C56.364 8.53849 57.7314 9.32697 58.6267 10.2831L60.9172 7.58234C59.7734 6.03533 57.4539 4.9664 55.5546 4.9664C51.7589 4.9664 49.0142 7.1891 49.0142 10.874C49.0142 17.7108 57.3701 15.541 57.3701 19.3676C57.3701 20.5473 56.2243 21.5893 54.9128 21.5893C52.8438 21.5893 52.1731 20.5782 51.223 19.5083L48.6799 22.1522C50.3067 24.1483 52.3129 25.1624 54.7152 25.1624C58.3213 25.1624 61.2216 22.9127 61.2216 19.3955C61.2216 11.8062 52.8648 14.1646 52.8648 10.874M104.565 21.9326C102.498 21.9326 101.91 21.0383 101.91 19.669V13.6057H105.124V10.5336H101.91V6.48047L98.3628 8.07239V20.4225C98.3628 23.5814 100.543 25.1733 103.531 25.1733C104 25.1813 104.469 25.1434 104.93 25.0615L105.795 21.8757C105.405 21.9027 104.957 21.9296 104.565 21.9296M40.2662 10.0835C38.5335 10.0835 37.3238 10.5865 36.1541 11.7333V5.08716H32.6509V17.4063C32.6509 22.0174 35.9844 25.1773 39.7312 25.1773C43.8872 25.1773 47.5431 21.9615 47.5431 17.6319C47.5431 13.3562 44.1786 10.0865 40.2662 10.0865M40.2442 21.6511C39.7221 21.6511 39.2051 21.5483 38.7227 21.3485C38.2404 21.1487 37.8021 20.8558 37.4329 20.4867C37.0637 20.1175 36.7708 19.6792 36.571 19.1968C36.3712 18.7144 36.2684 18.1974 36.2684 17.6753C36.2684 17.1532 36.3712 16.6362 36.571 16.1538C36.7708 15.6715 37.0637 15.2332 37.4329 14.864C37.8021 14.4948 38.2404 14.202 38.7227 14.0022C39.2051 13.8024 39.7221 13.6995 40.2442 13.6995C41.2986 13.6995 42.3099 14.1184 43.0555 14.864C43.8011 15.6096 44.22 16.6209 44.22 17.6753C44.22 18.7298 43.8011 19.741 43.0555 20.4867C42.3099 21.2323 41.2986 21.6511 40.2442 21.6511ZM78.3126 17.4483C78.3126 13.1107 74.6647 9.90285 70.5007 9.90285C66.7549 9.90285 63.4204 13.0617 63.4204 17.6738V30H66.9236V23.3449C68.0914 24.4897 69.303 24.9947 71.0337 24.9947C74.9461 24.9947 78.3126 21.725 78.3126 17.4483ZM74.995 17.4044C74.995 18.4588 74.5761 19.4701 73.8305 20.2157C73.0849 20.9613 72.0737 21.3802 71.0192 21.3802C69.9648 21.3802 68.9535 20.9613 68.2079 20.2157C67.4623 19.4701 67.0434 18.4588 67.0434 17.4044C67.0434 16.3499 67.4623 15.3386 68.2079 14.593C68.9535 13.8474 69.9648 13.4285 71.0192 13.4285C72.0737 13.4285 73.0849 13.8474 73.8305 14.593C74.5761 15.3386 74.995 16.3499 74.995 17.4044Z" fill="#07061A"></path>
<path d="M89.6327 9.73318V6.21299C90.0979 5.99558 90.4918 5.65052 90.7685 5.21797C91.0452 4.78542 91.1933 4.28318 91.1957 3.76971V3.68887C91.1957 2.19176 89.982 0.978108 88.4849 0.978108H88.4041C87.6852 0.978108 86.9957 1.2637 86.4873 1.77207C85.9789 2.28044 85.6933 2.96993 85.6933 3.68887V3.76971C85.6957 4.28318 85.8439 4.78542 86.1206 5.21797C86.3973 5.65052 86.7911 5.99558 87.2563 6.21299V9.73318C85.9193 9.9379 84.6602 10.4922 83.6064 11.3401L73.952 3.82061C74.0209 3.57209 74.0568 3.31659 74.0608 3.06008C74.062 2.45596 73.884 1.86505 73.5493 1.36211C73.2146 0.859162 72.7383 0.466778 72.1806 0.234586C71.6228 0.00239328 71.0088 -0.0591756 70.416 0.0576671C69.8233 0.17451 69.2786 0.464514 68.8507 0.890998C68.4228 1.31748 68.131 1.86129 68.0122 2.45362C67.8935 3.04596 67.953 3.66021 68.1834 4.21869C68.4138 4.77718 68.8046 5.25479 69.3064 5.59112C69.8083 5.92746 70.3986 6.1074 71.0027 6.10819C71.5313 6.1057 72.0499 5.9646 72.5068 5.69898L82.0134 13.0967C81.1594 14.3869 80.7139 15.9044 80.7349 17.4515C80.7559 18.9985 81.2425 20.5034 82.1312 21.7699L79.2398 24.6623C79.0061 24.5876 78.7626 24.5479 78.5172 24.5445C78.0213 24.5449 77.5367 24.6923 77.1245 24.9681C76.7123 25.2438 76.3912 25.6356 76.2016 26.0938C76.012 26.552 75.9625 27.0562 76.0593 27.5425C76.1562 28.0289 76.395 28.4756 76.7457 28.8262C77.0963 29.1769 77.543 29.4157 78.0294 29.5126C78.5157 29.6094 79.0199 29.5599 79.4781 29.3703C79.9363 29.1807 80.3281 28.8596 80.6038 28.4474C80.8796 28.0352 81.027 27.5506 81.0274 27.0547C81.0241 26.8093 80.9844 26.5658 80.9096 26.3321L83.7701 23.4706C84.7028 24.1887 85.7876 24.6838 86.9413 24.9179C88.095 25.1521 89.2869 25.119 90.4258 24.8213C91.5647 24.5236 92.6204 23.9692 93.512 23.2004C94.4035 22.4317 95.1073 21.4691 95.5693 20.3864C96.0314 19.3037 96.2395 18.1296 96.1777 16.954C96.1159 15.7785 95.7859 14.6327 95.2128 13.6044C94.6398 12.5761 93.839 11.6926 92.8718 11.0216C91.9046 10.3505 90.7966 9.90984 89.6327 9.73318ZM88.447 21.3108C87.9184 21.3253 87.3922 21.2338 86.8995 21.0415C86.4068 20.8493 85.9577 20.5602 85.5787 20.1914C85.1996 19.8227 84.8983 19.3817 84.6926 18.8945C84.4868 18.4073 84.3808 17.8838 84.3808 17.3549C84.3808 16.8261 84.4868 16.3026 84.6926 15.8154C84.8983 15.3282 85.1996 14.8872 85.5787 14.5185C85.9577 14.1497 86.4068 13.8606 86.8995 13.6684C87.3922 13.4761 87.9184 13.3845 88.447 13.3991C89.4716 13.435 90.4423 13.8671 91.1546 14.6044C91.867 15.3418 92.2653 16.3268 92.2659 17.352C92.2664 18.3773 91.869 19.3627 91.1574 20.1007C90.4458 20.8388 89.4756 21.2719 88.451 21.3088" fill="#07061A"></path>
</svg>