<svg width="128" height="27" viewBox="0 0 128 27" fill="none" xmlns="http://www.w3.org/2000/svg">
<path d="M33.1062 25.8398V7.27064H38.0983L41.6739 20.2375H41.7251L45.3263 7.27064H50.3654V25.8441H47.2762V11.2302H47.225L43.0564 25.8398H40.3555L36.238 11.2302H36.1868V25.8398H33.1062ZM54.4317 10.2531H57.6233V7.26638H54.4317V10.2531ZM57.619 12.4676H54.4274V25.8441H57.619V12.4676ZM61.5829 25.8398H64.7744V7.27064H61.5829V25.8398ZM68.734 25.8398H71.9256V7.27064H68.734V25.8398ZM75.8852 10.2531H79.0768V7.26638H75.8852V10.2531ZM79.0768 12.4676H75.8852V25.8441H79.0768V12.4676ZM85.8951 16.2224C86.6418 15.5269 87.7469 14.7802 88.5704 14.7802C89.7267 14.8314 90.1662 15.4245 90.1662 16.504V25.8441H93.3578V16.2224C94.1002 15.5269 95.2096 14.7802 96.0331 14.7802C97.1894 14.8314 97.6289 15.4245 97.6289 16.504V25.8441H100.82V16.2224C100.82 13.0308 98.9174 12.2116 97.5265 12.2116C95.312 12.2116 94.0277 13.0607 92.9226 14.1658C92.3337 12.8772 91.0196 12.2116 89.6286 12.2116C87.8024 12.2116 86.8253 12.8004 85.6178 13.9098V12.4719H82.7121V25.8483H85.8951V16.2224ZM114.06 25.8398C113.856 25.251 113.804 24.5811 113.804 23.9112V17.6091C113.804 13.5941 112.26 12.2841 108.659 12.2073C106.704 12.1561 104.494 13.2356 103.671 14.6522L105.727 16.2224C106.346 15.3733 107.169 14.5754 108.663 14.5754C109.798 14.5754 110.621 15.1386 110.621 16.1712V17.3019C105.424 17.9206 102.954 19.5164 102.954 22.5501C102.954 24.3763 104.161 26.1001 106.585 26.1001C108.257 26.1001 109.465 25.5582 110.754 24.6835L110.958 25.8398H114.06ZM110.617 22.3154C109.947 22.8829 108.688 23.732 107.681 23.732C106.781 23.732 106.137 23.1645 106.137 22.1618C106.137 20.2844 108.479 19.8449 110.613 19.4353V22.3154H110.617ZM120.183 16.1925C120.725 15.5739 121.779 14.7802 123.166 14.7802C124.249 14.7802 124.813 15.3477 124.813 17.1483V25.8441H128V16.6832C128 13.9567 126.716 12.2073 124.04 12.2073C122.47 12.2073 121.105 13.0778 119.923 13.9055V12.4676H116.992V25.8441H120.183V16.1925ZM25.8398 0H18.5692V7.26638H25.8355V0H25.8398Z" fill="#07061A"></path>
<path d="M18.5692 18.5692V7.26638L25.1571 13.8543C25.5454 14.2298 25.8227 14.9424 25.8355 15.4885V25.8355H0V0H10.3513C10.8974 0.0128004 11.61 0.290143 11.9855 0.674156L18.5734 7.26638H7.27064V18.5649L18.5692 18.5692Z" fill="#07061A"></path>
</svg>