<svg width="81" height="80" viewBox="0 0 81 80" fill="none" xmlns="http://www.w3.org/2000/svg">
<path d="M0 34.5248L7.12637 15.974H12.1333L19.2597 34.5248H14.8608L13.4158 30.5773H5.81679L4.36937 34.5248H0ZM7.01314 27.3137H12.2465L9.62983 20.1528L7.01314 27.3137ZM20.904 15.974H25.1355V34.5248H20.904V15.974ZM45.1165 27.8341C44.3115 32.3298 41.2493 34.9422 36.5156 34.9422C30.6717 34.9422 27.0014 30.786 27.0014 25.2745C27.0014 19.7631 30.6717 15.5566 36.5156 15.5566C41.0548 15.5566 44.1712 18.0659 45.0303 22.3479L40.6363 22.5314C40.1342 20.2082 38.603 18.9007 36.4343 18.9007C32.9536 18.9007 31.3388 21.6438 31.3388 25.2745C31.3388 28.8801 32.9832 31.5981 36.4343 31.5981C38.7433 31.5981 40.2449 30.1876 40.6905 27.6782L45.1165 27.8341ZM54.7635 15.974C59.4948 15.974 62.3625 18.2721 62.3625 22.0361C62.3625 25.7975 59.4948 28.1233 54.7635 28.1233H51.0883V34.5248H46.8617V15.974H54.7635ZM51.0883 24.7792H54.5149C56.7377 24.7792 58.0202 23.8389 58.0202 22.0361C58.0202 20.2333 56.7377 19.3181 54.5149 19.3181H51.0883V24.7792ZM60.7453 34.5248L67.8692 15.974H72.8786L80 34.5248H75.606L74.1561 30.5773H66.5596L65.1146 34.5248H60.7453ZM67.7584 27.3137H72.9893L70.3751 20.1528L67.7584 27.3137ZM7.9584 55.6578C8.32026 57.6416 9.8243 58.949 12.3007 58.949C14.1912 58.949 15.4737 58.245 15.4442 56.8873C15.4196 55.527 14.1912 54.7451 11.1043 54.041C6.81867 53.0705 4.06166 51.4513 4.06166 48.4743C4.06166 45.1026 7.06729 42.988 11.577 42.988C15.9734 42.988 18.979 45.52 19.4517 49.2588L15.2202 49.4675C14.9986 47.5088 13.5512 46.2793 11.4637 46.2793C9.62983 46.2793 8.32026 47.1669 8.40641 48.5271C8.46057 50.0935 10.4077 50.6165 12.5222 51.1144C16.9482 52.0271 19.7594 53.8022 19.7594 56.7565C19.7594 60.2816 16.4485 62.2705 12.1875 62.2705C7.37253 62.2705 3.98043 59.7612 3.70227 55.8413L7.9584 55.6578ZM30.7973 62.3736C24.7885 62.3736 21.197 58.6624 21.197 52.7059C21.197 46.6967 24.7885 42.988 30.7973 42.988C36.8085 42.988 40.4271 46.6967 40.4271 52.7059C40.4271 58.6624 36.8085 62.3736 30.7973 62.3736ZM25.5663 52.7059C25.5663 56.6761 27.5159 59.0295 30.7973 59.0295C34.1377 59.0295 36.0577 56.6761 36.0577 52.7059C36.0577 48.7081 34.1377 46.3321 30.7973 46.3321C27.5159 46.3321 25.5663 48.7081 25.5663 52.7059ZM59.6966 55.2655C58.8917 59.7612 55.8294 62.3736 51.0957 62.3736C45.2519 62.3736 41.584 58.2199 41.584 52.7059C41.584 47.1945 45.2519 42.988 51.0957 42.988C55.6349 42.988 58.7513 45.4973 59.6129 49.7793L55.2165 49.9628C54.7168 47.6396 53.1832 46.3321 51.0145 46.3321C47.5338 46.3321 45.9214 49.0752 45.9214 52.7059C45.9214 56.3115 47.5633 59.0295 51.0145 59.0295C53.3235 59.0295 54.8275 57.6189 55.2706 55.1096L59.6966 55.2655ZM61.2967 49.3091C61.6314 45.6532 64.5829 42.988 68.9523 42.988C73.0976 42.988 76.0762 45.3666 76.0762 48.6302C76.0762 51.4789 73.654 53.1258 70.956 54.5892C69.868 55.1624 66.4193 57.0935 66.306 58.6121H76.1303V61.9562H61.1613C61.1613 56.5202 64.418 54.041 68.4501 51.8963C70.4514 50.7473 71.7339 49.7793 71.7339 48.5774C71.7339 47.2725 70.5917 46.3321 68.9523 46.3321C67.1701 46.3321 66.0008 47.4811 65.6414 49.5454L61.2967 49.3091Z" fill="#F7F7FF"></path>
</svg>