<svg width="64" height="64" viewBox="0 0 64 64" fill="none" xmlns="http://www.w3.org/2000/svg">
<path d="M17.926 40.5744H16.0383L15.8759 38.5481C15.1447 39.9794 13.5008 40.8921 11.5128 40.8921C7.43413 40.8921 4.75562 37.7334 4.75562 33.5424C4.75562 29.349 7.43413 26.1496 11.6944 26.1496C14.9631 26.1496 17.1948 28.0372 17.8854 31.098L14.6788 31.2366C14.2941 29.6261 13.2595 28.6919 11.6347 28.6919C9.09715 28.6919 7.92157 30.7802 7.92157 33.5424C7.92157 36.283 9.11865 38.3498 11.6347 38.3498C13.5008 38.3498 14.5569 37.1766 14.8006 35.4491H11.6156V33.2246H17.926V40.5744ZM24.5279 26.4674C29.1968 26.4674 31.8155 29.0121 31.8155 33.5424C31.8155 38.0512 29.2374 40.5744 24.6497 40.5744H19.5555V26.4674H24.5279ZM22.6403 38.032H24.5279C27.3282 38.032 28.6687 36.5817 28.6687 33.5209C28.6687 30.4624 27.3282 29.0121 24.5279 29.0121H22.6403V38.032ZM38.7974 26.4674C42.2476 26.4674 44.3384 28.2164 44.3384 31.0765C44.3384 33.939 42.2476 35.7071 38.7974 35.7071H36.1188V40.5744H33.0341V26.4674H38.7974ZM36.1188 33.1648H38.6158C40.2382 33.1648 41.1724 32.448 41.1724 31.0765C41.1724 29.7074 40.2382 29.0121 38.6158 29.0121H36.1188V33.1648ZM52.1517 26.4674C55.136 26.4674 57.3271 27.9774 57.3271 30.699C57.3271 32.4886 56.2734 33.7001 54.7107 34.0967C56.2519 34.2759 56.9831 34.9927 57.1049 36.5219L57.4705 40.5744H54.3643L54.0799 37.038C53.9796 35.8075 53.3106 35.4085 51.626 35.4085H48.926V40.5744H45.8413V26.4674H52.1517ZM48.926 32.8853H51.7073C53.289 32.8853 54.1612 32.19 54.1612 30.957C54.1612 29.7074 53.3106 29.0121 51.7073 29.0121H48.926V32.8853Z" fill="#07061A"></path>
<path d="M17.926 40.5744H16.0383L15.8759 38.5481C15.1447 39.9794 13.5008 40.8921 11.5128 40.8921C7.43413 40.8921 4.75562 37.7334 4.75562 33.5424C4.75562 29.349 7.43413 26.1496 11.6944 26.1496C14.9631 26.1496 17.1948 28.0372 17.8854 31.098L14.6788 31.2366C14.2941 29.6261 13.2595 28.6919 11.6347 28.6919C9.09715 28.6919 7.92157 30.7802 7.92157 33.5424C7.92157 36.283 9.11865 38.3498 11.6347 38.3498C13.5008 38.3498 14.5569 37.1766 14.8006 35.4491H11.6156V33.2246H17.926V40.5744ZM24.5279 26.4674C29.1968 26.4674 31.8155 29.0121 31.8155 33.5424C31.8155 38.0512 29.2374 40.5744 24.6497 40.5744H19.5555V26.4674H24.5279ZM22.6403 38.032H24.5279C27.3282 38.032 28.6687 36.5817 28.6687 33.5209C28.6687 30.4624 27.3282 29.0121 24.5279 29.0121H22.6403V38.032ZM38.7974 26.4674C42.2476 26.4674 44.3384 28.2164 44.3384 31.0765C44.3384 33.939 42.2476 35.7071 38.7974 35.7071H36.1188V40.5744H33.0341V26.4674H38.7974ZM36.1188 33.1648H38.6158C40.2382 33.1648 41.1724 32.448 41.1724 31.0765C41.1724 29.7074 40.2382 29.0121 38.6158 29.0121H36.1188V33.1648ZM52.1517 26.4674C55.136 26.4674 57.3271 27.9774 57.3271 30.699C57.3271 32.4886 56.2734 33.7001 54.7107 34.0967C56.2519 34.2759 56.9831 34.9927 57.1049 36.5219L57.4705 40.5744H54.3643L54.0799 37.038C53.9796 35.8075 53.3106 35.4085 51.626 35.4085H48.926V40.5744H45.8413V26.4674H52.1517ZM48.926 32.8853H51.7073C53.289 32.8853 54.1612 32.19 54.1612 30.957C54.1612 29.7074 53.3106 29.0121 51.7073 29.0121H48.926V32.8853Z" fill="url(#paint0_linear_4629_110381)"></path>
<path d="M31.7558 0L32.8263 1.81833L35.0221 2.20063L33.4857 3.70596L33.7748 5.76084L31.7558 4.87198L29.7344 5.76084L30.0211 3.70596L28.4847 2.20063L30.683 1.81833L31.7558 0ZM18.681 3.83976L19.7515 5.66048L21.9473 6.0404L20.4133 7.54572L20.7001 9.6006L18.681 8.71174L16.662 9.6006L16.9487 7.54572L15.4099 6.0404L17.6106 5.66048L18.681 3.83976ZM8.22024 12.1596L9.29308 13.9804L11.4889 14.3603L9.95255 15.8656L10.2417 17.9205L8.22024 17.0316L6.2012 17.9205L6.48793 15.8656L4.95155 14.3603L7.14979 13.9804L8.22024 12.1596ZM55.289 12.1596L56.3594 13.9804L58.5553 14.3603L57.0213 15.8656L57.308 17.9205L55.289 17.0316L53.2675 17.9205L53.5567 15.8656L52.0203 14.3603L54.2185 13.9804L55.289 12.1596ZM44.8282 3.83976L45.901 5.66048L48.0969 6.0404L46.5605 7.54572L46.8496 9.6006L44.8282 8.71174L42.8091 9.6006L43.0959 7.54572L41.5595 6.0404L43.7577 5.66048L44.8282 3.83976ZM31.7558 58.2416L32.8263 60.0599L35.0221 60.4422L33.4857 61.9475L33.7748 64L31.7558 63.1111L29.7344 64L30.0211 61.9475L28.4847 60.4422L30.683 60.0599L31.7558 58.2416ZM18.681 54.4018L19.7515 56.2201L21.9473 56.6024L20.4133 58.1077L20.7001 60.1602L18.681 59.2738L16.662 60.1602L16.9487 58.1077L15.4099 56.6024L17.6106 56.2201L18.681 54.4018ZM8.22024 46.0795L9.29308 47.9002L11.4889 48.2802L9.95255 49.7855L10.2417 51.8404L8.22024 50.9539L6.2012 51.8404L6.48793 49.7855L4.95155 48.2802L7.14979 47.9002L8.22024 46.0795ZM55.289 46.0795L56.3594 47.9002L58.5553 48.2802L57.0213 49.7855L57.308 51.8404L55.289 50.9539L53.2675 51.8404L53.5567 49.7855L52.0203 48.2802L54.2185 47.9002L55.289 46.0795ZM44.8282 54.4018L45.901 56.2201L48.0969 56.6024L46.5605 58.1077L46.8496 60.1602L44.8282 59.2738L42.8091 60.1602L43.0959 58.1077L41.5595 56.6024L43.7577 56.2201L44.8282 54.4018Z" fill="#07061A"></path>
<path d="M31.7558 0L32.8263 1.81833L35.0221 2.20063L33.4857 3.70596L33.7748 5.76084L31.7558 4.87198L29.7344 5.76084L30.0211 3.70596L28.4847 2.20063L30.683 1.81833L31.7558 0ZM18.681 3.83976L19.7515 5.66048L21.9473 6.0404L20.4133 7.54572L20.7001 9.6006L18.681 8.71174L16.662 9.6006L16.9487 7.54572L15.4099 6.0404L17.6106 5.66048L18.681 3.83976ZM8.22024 12.1596L9.29308 13.9804L11.4889 14.3603L9.95255 15.8656L10.2417 17.9205L8.22024 17.0316L6.2012 17.9205L6.48793 15.8656L4.95155 14.3603L7.14979 13.9804L8.22024 12.1596ZM55.289 12.1596L56.3594 13.9804L58.5553 14.3603L57.0213 15.8656L57.308 17.9205L55.289 17.0316L53.2675 17.9205L53.5567 15.8656L52.0203 14.3603L54.2185 13.9804L55.289 12.1596ZM44.8282 3.83976L45.901 5.66048L48.0969 6.0404L46.5605 7.54572L46.8496 9.6006L44.8282 8.71174L42.8091 9.6006L43.0959 7.54572L41.5595 6.0404L43.7577 5.66048L44.8282 3.83976ZM31.7558 58.2416L32.8263 60.0599L35.0221 60.4422L33.4857 61.9475L33.7748 64L31.7558 63.1111L29.7344 64L30.0211 61.9475L28.4847 60.4422L30.683 60.0599L31.7558 58.2416ZM18.681 54.4018L19.7515 56.2201L21.9473 56.6024L20.4133 58.1077L20.7001 60.1602L18.681 59.2738L16.662 60.1602L16.9487 58.1077L15.4099 56.6024L17.6106 56.2201L18.681 54.4018ZM8.22024 46.0795L9.29308 47.9002L11.4889 48.2802L9.95255 49.7855L10.2417 51.8404L8.22024 50.9539L6.2012 51.8404L6.48793 49.7855L4.95155 48.2802L7.14979 47.9002L8.22024 46.0795ZM55.289 46.0795L56.3594 47.9002L58.5553 48.2802L57.0213 49.7855L57.308 51.8404L55.289 50.9539L53.2675 51.8404L53.5567 49.7855L52.0203 48.2802L54.2185 47.9002L55.289 46.0795ZM44.8282 54.4018L45.901 56.2201L48.0969 56.6024L46.5605 58.1077L46.8496 60.1602L44.8282 59.2738L42.8091 60.1602L43.0959 58.1077L41.5595 56.6024L43.7577 56.2201L44.8282 54.4018Z" fill="url(#paint1_linear_4629_110381)"></path>
<defs>
<linearGradient id="paint0_linear_4629_110381" x1="31.6554" y1="0" x2="31.6554" y2="64" gradientUnits="userSpaceOnUse">
<stop stop-color="white" stop-opacity="0"></stop>
<stop offset="1" stop-color="white" stop-opacity="0.3"></stop>
</linearGradient>
<linearGradient id="paint1_linear_4629_110381" x1="31.6554" y1="0" x2="31.6554" y2="64" gradientUnits="userSpaceOnUse">
<stop stop-color="white" stop-opacity="0"></stop>
<stop offset="1" stop-color="white" stop-opacity="0.3"></stop>
</linearGradient>
</defs>
</svg>