<svg width="65" height="64" viewBox="0 0 65 64" fill="none" xmlns="http://www.w3.org/2000/svg">
<path d="M64 31.3603C63.9817 48.6618 49.6409 62.6737 31.9687 62.658C14.3174 62.6424 0.0130712 48.6357 1.74855e-05 31.3525C-0.0182578 14.0537 14.2913 0.0156645 31.9582 0H32.0287C49.7035 0.0156645 64.0156 14.0537 64 31.3603ZM42.7302 47.4113L43.7249 43.7353H44.1374C44.4376 43.7301 44.7353 43.7327 45.0329 43.7405C45.4715 43.704 45.9101 43.7301 46.3409 43.8162C46.0406 45.3383 45.6621 46.8473 45.2052 48.3355C45.5733 48.5339 45.944 48.7271 46.3095 48.9229C47.1163 49.3458 47.9099 49.7609 48.6775 50.223C49.4555 50.6982 50.2204 51.1968 50.9697 51.719C51.2908 51.9357 51.6094 52.1524 51.9305 52.3638C64.9033 40.7251 64.094 20.9278 51.8783 10.2629C49.8184 11.8502 47.5731 13.1947 45.1869 14.2651C45.6412 15.8394 46.072 17.3432 46.3565 18.8966H43.7014L43.5474 18.2909C43.4429 17.8784 43.3411 17.479 43.2288 17.0795C43.0905 16.4582 42.9077 15.8499 42.6754 15.2572C35.7517 17.6591 28.1935 17.6539 21.2724 15.2468L20.2725 18.9306H18.9619C18.6382 18.9279 18.3144 18.9253 17.9542 18.9175L17.5834 18.9123L18.7896 14.2521C16.4112 13.1869 14.1712 11.8424 12.1191 10.2524C-0.772765 21.7632 -0.229728 41.5606 12.1191 52.3899C14.1842 50.8 16.4347 49.4555 18.8209 48.3798C18.3432 46.8578 17.9463 45.3148 17.6356 43.7536H20.2856L21.2724 47.4139C28.2118 44.9989 35.7882 44.9989 42.7276 47.4113H42.7302ZM38.4355 6.49816C37.5452 5.28938 36.4226 4.26075 35.1303 3.46969C33.3289 2.32618 31.0262 2.26352 29.1621 3.30782C27.9638 3.96573 26.9064 4.84555 26.0501 5.9003C24.6742 7.56596 23.5542 9.41698 22.7214 11.3985C22.5909 11.6962 22.4655 11.999 22.335 12.3175L22.1392 12.7927C28.4964 15.0249 35.4462 15.0327 41.8086 12.811C41.7929 12.7091 41.7694 12.6099 41.7433 12.5107C40.9314 10.3647 39.8166 8.34396 38.4355 6.49816ZM22.2097 49.9907C22.2253 50.0481 22.2436 50.1055 22.2645 50.163C23.0242 52.1524 24.0372 54.0373 25.2825 55.7761C26.0971 56.9248 27.0944 57.9378 28.2379 58.7785C30.6372 60.4911 33.2401 60.5146 35.6629 58.8437C36.4931 58.2641 37.2398 57.5775 37.8925 56.81C39.5477 54.8049 40.8531 52.544 41.7538 50.1212C41.7773 50.0272 41.7955 49.9332 41.8034 49.8366C35.454 47.6253 28.5199 47.6279 22.1705 49.8445C22.1836 49.8915 22.1992 49.9411 22.2097 49.9881V49.9907ZM44.3906 50.8835L43.7249 52.2281C43.2341 53.2254 42.7485 54.207 42.2315 55.1678C41.4561 56.5541 40.5372 57.8595 39.485 59.0604C43.2445 58.1362 46.7664 56.4575 49.834 54.1313C48.1501 52.8494 46.3226 51.7608 44.3906 50.8835ZM20.2777 52.2359C20.0584 51.7869 19.8391 51.3352 19.612 50.8809C17.6748 51.7608 15.8499 52.8521 14.1633 54.1313C17.2414 56.4601 20.7738 58.1414 24.5437 59.0735C23.4811 57.8856 22.5543 56.5854 21.7815 55.1991C21.2541 54.2305 20.7685 53.2384 20.2777 52.2359ZM49.7505 8.45622C46.7011 6.15876 43.1975 4.49832 39.4615 3.58195C41.618 5.99951 43.0957 8.78257 44.294 11.764C45.7064 11.2967 49.2571 9.14546 49.7505 8.45622ZM14.1947 8.50061C15.2912 9.49791 18.6852 11.4925 19.7216 11.7432C20.8312 8.78518 22.4446 6.03345 24.4915 3.60284C20.7529 4.52443 17.244 6.19009 14.1947 8.50061ZM51.907 39.0725C50.6643 39.5529 49.3484 39.8244 48.0144 39.8714C46.4583 39.9915 44.8971 39.827 43.4038 39.3832C40.1769 38.3702 38.2449 36.2425 37.7541 32.9242C37.5087 31.4126 37.6079 29.867 38.0413 28.3971C38.6966 26.1571 40.3988 24.3557 42.6284 23.5411C44.542 22.8284 46.6019 22.5804 48.6357 22.8206C49.8001 22.8963 50.9462 23.1678 52.0192 23.6195C54.5647 24.6481 56.34 26.9482 56.6559 29.6242C56.7108 30.0184 56.7499 30.4153 56.776 30.8147L56.8204 31.3577C56.8361 32.8145 56.5045 34.2583 55.8544 35.5689C55.019 37.1693 53.6144 38.4146 51.907 39.0725ZM50.317 29.0289C50.2492 28.1596 50.0116 27.3111 49.6069 26.5331C49.1631 25.6663 48.2415 25.1311 47.252 25.165C46.2417 25.1154 45.2966 25.648 44.8292 26.5252C44.5029 27.1362 44.2888 27.7993 44.2 28.4833C43.939 30.1698 43.9076 31.8825 44.1061 33.5743C44.1687 34.3523 44.3567 35.1146 44.6674 35.8352C45.0955 36.8116 46.0667 37.4538 47.1528 37.4773C48.2389 37.4982 49.2388 36.8978 49.7087 35.9396C49.881 35.5793 50.0142 35.2008 50.1056 34.8144C50.3562 33.6761 50.4815 32.5195 50.4815 31.3577L50.4397 30.6607C50.4084 30.1176 50.3771 29.5694 50.317 29.0289ZM32.3316 27.9507C31.7233 26.3529 30.4988 25.5384 28.8097 25.3608C28.1674 25.2642 27.5095 25.2982 26.8803 25.4627C26.4704 25.5801 26.0971 25.8021 25.8073 26.1101C25.2042 26.7602 25.2695 27.4964 26.0344 27.9507C26.4809 28.2092 26.9612 28.405 27.4599 28.5303C28.0055 28.6791 28.559 28.8044 29.1125 28.9297C29.6242 29.0472 30.1359 29.1647 30.6424 29.2979C31.8695 29.5876 33.0391 30.0654 34.1121 30.7155C35.2661 31.4178 36.0049 32.6187 36.0989 33.9476C36.2947 35.2921 35.9083 36.6602 35.0337 37.7149C34.368 38.4799 33.5012 39.0542 32.53 39.3727C31.2272 39.8009 29.8514 39.9732 28.4807 39.8766C26.8673 39.7905 25.2878 39.391 23.8336 38.7018C23.7866 38.6809 23.737 38.6626 23.6874 38.647C23.656 38.6365 23.6247 38.6261 23.5934 38.6156L22.9746 39.4693H20.7894V33.5534C21.168 33.4959 21.5492 33.4803 21.9303 33.5064C22.1836 33.5012 22.4368 33.5038 22.7031 33.5038H23.0843L23.1496 33.6735C23.2018 33.8066 23.2488 33.9346 23.3036 34.0625C24.0659 35.8352 25.3426 37.0231 27.3111 37.3938C27.9664 37.5426 28.6452 37.5269 29.2953 37.352C29.6477 37.2502 29.9767 37.0857 30.2691 36.8664C30.6006 36.6341 30.7991 36.2607 30.7991 35.8613C30.7964 35.4645 30.6006 35.0885 30.2691 34.8588C29.7939 34.5141 29.2665 34.2452 28.7078 34.0599C28.076 33.851 27.439 33.6578 26.7968 33.4829C26.3347 33.355 25.8726 33.2192 25.4131 33.0782C24.6533 32.8537 23.9041 32.59 23.1704 32.2872C21.7789 31.6815 20.7581 30.6946 20.45 29.196C19.954 26.8046 20.9826 24.7238 23.2227 23.5673C24.1834 23.0869 25.2382 22.818 26.3138 22.7762C28.358 22.6274 30.4048 22.9929 32.2637 23.8309C32.3055 23.8518 32.3525 23.8675 32.4125 23.891L32.5221 23.9302L32.9764 23.1887H35.2739V28.7104L33.9763 28.7235H32.6135L32.3316 27.9507ZM9.11937 39.3754V37.151H9.38828C9.59714 37.151 9.80078 37.1536 10.0018 37.1484C10.2054 37.1484 10.4091 37.1301 10.6101 37.0988C10.9182 37.0675 11.1636 36.8325 11.1975 36.5322C11.2419 36.2999 11.2706 36.0675 11.2837 35.8326C11.2889 32.8198 11.2889 29.807 11.2837 26.7968C11.2811 25.7316 11.0226 25.4888 9.93393 25.4679H9.41439L9.11937 25.4705V23.2566H18.7687C18.8966 23.9745 18.9071 24.7108 18.8 25.4339L18.6852 25.4444L18.3823 25.4731C18.2962 25.4757 18.21 25.4757 18.1212 25.4757H17.9385C16.9464 25.5097 16.7114 25.7185 16.7114 26.6767C16.701 29.76 16.701 32.8433 16.7114 35.9292C16.7141 36.9186 16.949 37.1301 17.9672 37.151C18.1474 37.1536 18.3275 37.151 18.5207 37.151H18.8366V39.3754H9.11937Z" fill="#07061A"></path>
<path d="M64 31.3603C63.9817 48.6618 49.6409 62.6737 31.9687 62.658C14.3174 62.6424 0.0130712 48.6357 1.74855e-05 31.3525C-0.0182578 14.0537 14.2913 0.0156645 31.9582 0H32.0287C49.7035 0.0156645 64.0156 14.0537 64 31.3603ZM42.7302 47.4113L43.7249 43.7353H44.1374C44.4376 43.7301 44.7353 43.7327 45.0329 43.7405C45.4715 43.704 45.9101 43.7301 46.3409 43.8162C46.0406 45.3383 45.6621 46.8473 45.2052 48.3355C45.5733 48.5339 45.944 48.7271 46.3095 48.9229C47.1163 49.3458 47.9099 49.7609 48.6775 50.223C49.4555 50.6982 50.2204 51.1968 50.9697 51.719C51.2908 51.9357 51.6094 52.1524 51.9305 52.3638C64.9033 40.7251 64.094 20.9278 51.8783 10.2629C49.8184 11.8502 47.5731 13.1947 45.1869 14.2651C45.6412 15.8394 46.072 17.3432 46.3565 18.8966H43.7014L43.5474 18.2909C43.4429 17.8784 43.3411 17.479 43.2288 17.0795C43.0905 16.4582 42.9077 15.8499 42.6754 15.2572C35.7517 17.6591 28.1935 17.6539 21.2724 15.2468L20.2725 18.9306H18.9619C18.6382 18.9279 18.3144 18.9253 17.9542 18.9175L17.5834 18.9123L18.7896 14.2521C16.4112 13.1869 14.1712 11.8424 12.1191 10.2524C-0.772765 21.7632 -0.229728 41.5606 12.1191 52.3899C14.1842 50.8 16.4347 49.4555 18.8209 48.3798C18.3432 46.8578 17.9463 45.3148 17.6356 43.7536H20.2856L21.2724 47.4139C28.2118 44.9989 35.7882 44.9989 42.7276 47.4113H42.7302ZM38.4355 6.49816C37.5452 5.28938 36.4226 4.26075 35.1303 3.46969C33.3289 2.32618 31.0262 2.26352 29.1621 3.30782C27.9638 3.96573 26.9064 4.84555 26.0501 5.9003C24.6742 7.56596 23.5542 9.41698 22.7214 11.3985C22.5909 11.6962 22.4655 11.999 22.335 12.3175L22.1392 12.7927C28.4964 15.0249 35.4462 15.0327 41.8086 12.811C41.7929 12.7091 41.7694 12.6099 41.7433 12.5107C40.9314 10.3647 39.8166 8.34396 38.4355 6.49816ZM22.2097 49.9907C22.2253 50.0481 22.2436 50.1055 22.2645 50.163C23.0242 52.1524 24.0372 54.0373 25.2825 55.7761C26.0971 56.9248 27.0944 57.9378 28.2379 58.7785C30.6372 60.4911 33.2401 60.5146 35.6629 58.8437C36.4931 58.2641 37.2398 57.5775 37.8925 56.81C39.5477 54.8049 40.8531 52.544 41.7538 50.1212C41.7773 50.0272 41.7955 49.9332 41.8034 49.8366C35.454 47.6253 28.5199 47.6279 22.1705 49.8445C22.1836 49.8915 22.1992 49.9411 22.2097 49.9881V49.9907ZM44.3906 50.8835L43.7249 52.2281C43.2341 53.2254 42.7485 54.207 42.2315 55.1678C41.4561 56.5541 40.5372 57.8595 39.485 59.0604C43.2445 58.1362 46.7664 56.4575 49.834 54.1313C48.1501 52.8494 46.3226 51.7608 44.3906 50.8835ZM20.2777 52.2359C20.0584 51.7869 19.8391 51.3352 19.612 50.8809C17.6748 51.7608 15.8499 52.8521 14.1633 54.1313C17.2414 56.4601 20.7738 58.1414 24.5437 59.0735C23.4811 57.8856 22.5543 56.5854 21.7815 55.1991C21.2541 54.2305 20.7685 53.2384 20.2777 52.2359ZM49.7505 8.45622C46.7011 6.15876 43.1975 4.49832 39.4615 3.58195C41.618 5.99951 43.0957 8.78257 44.294 11.764C45.7064 11.2967 49.2571 9.14546 49.7505 8.45622ZM14.1947 8.50061C15.2912 9.49791 18.6852 11.4925 19.7216 11.7432C20.8312 8.78518 22.4446 6.03345 24.4915 3.60284C20.7529 4.52443 17.244 6.19009 14.1947 8.50061ZM51.907 39.0725C50.6643 39.5529 49.3484 39.8244 48.0144 39.8714C46.4583 39.9915 44.8971 39.827 43.4038 39.3832C40.1769 38.3702 38.2449 36.2425 37.7541 32.9242C37.5087 31.4126 37.6079 29.867 38.0413 28.3971C38.6966 26.1571 40.3988 24.3557 42.6284 23.5411C44.542 22.8284 46.6019 22.5804 48.6357 22.8206C49.8001 22.8963 50.9462 23.1678 52.0192 23.6195C54.5647 24.6481 56.34 26.9482 56.6559 29.6242C56.7108 30.0184 56.7499 30.4153 56.776 30.8147L56.8204 31.3577C56.8361 32.8145 56.5045 34.2583 55.8544 35.5689C55.019 37.1693 53.6144 38.4146 51.907 39.0725ZM50.317 29.0289C50.2492 28.1596 50.0116 27.3111 49.6069 26.5331C49.1631 25.6663 48.2415 25.1311 47.252 25.165C46.2417 25.1154 45.2966 25.648 44.8292 26.5252C44.5029 27.1362 44.2888 27.7993 44.2 28.4833C43.939 30.1698 43.9076 31.8825 44.1061 33.5743C44.1687 34.3523 44.3567 35.1146 44.6674 35.8352C45.0955 36.8116 46.0667 37.4538 47.1528 37.4773C48.2389 37.4982 49.2388 36.8978 49.7087 35.9396C49.881 35.5793 50.0142 35.2008 50.1056 34.8144C50.3562 33.6761 50.4815 32.5195 50.4815 31.3577L50.4397 30.6607C50.4084 30.1176 50.3771 29.5694 50.317 29.0289ZM32.3316 27.9507C31.7233 26.3529 30.4988 25.5384 28.8097 25.3608C28.1674 25.2642 27.5095 25.2982 26.8803 25.4627C26.4704 25.5801 26.0971 25.8021 25.8073 26.1101C25.2042 26.7602 25.2695 27.4964 26.0344 27.9507C26.4809 28.2092 26.9612 28.405 27.4599 28.5303C28.0055 28.6791 28.559 28.8044 29.1125 28.9297C29.6242 29.0472 30.1359 29.1647 30.6424 29.2979C31.8695 29.5876 33.0391 30.0654 34.1121 30.7155C35.2661 31.4178 36.0049 32.6187 36.0989 33.9476C36.2947 35.2921 35.9083 36.6602 35.0337 37.7149C34.368 38.4799 33.5012 39.0542 32.53 39.3727C31.2272 39.8009 29.8514 39.9732 28.4807 39.8766C26.8673 39.7905 25.2878 39.391 23.8336 38.7018C23.7866 38.6809 23.737 38.6626 23.6874 38.647C23.656 38.6365 23.6247 38.6261 23.5934 38.6156L22.9746 39.4693H20.7894V33.5534C21.168 33.4959 21.5492 33.4803 21.9303 33.5064C22.1836 33.5012 22.4368 33.5038 22.7031 33.5038H23.0843L23.1496 33.6735C23.2018 33.8066 23.2488 33.9346 23.3036 34.0625C24.0659 35.8352 25.3426 37.0231 27.3111 37.3938C27.9664 37.5426 28.6452 37.5269 29.2953 37.352C29.6477 37.2502 29.9767 37.0857 30.2691 36.8664C30.6006 36.6341 30.7991 36.2607 30.7991 35.8613C30.7964 35.4645 30.6006 35.0885 30.2691 34.8588C29.7939 34.5141 29.2665 34.2452 28.7078 34.0599C28.076 33.851 27.439 33.6578 26.7968 33.4829C26.3347 33.355 25.8726 33.2192 25.4131 33.0782C24.6533 32.8537 23.9041 32.59 23.1704 32.2872C21.7789 31.6815 20.7581 30.6946 20.45 29.196C19.954 26.8046 20.9826 24.7238 23.2227 23.5673C24.1834 23.0869 25.2382 22.818 26.3138 22.7762C28.358 22.6274 30.4048 22.9929 32.2637 23.8309C32.3055 23.8518 32.3525 23.8675 32.4125 23.891L32.5221 23.9302L32.9764 23.1887H35.2739V28.7104L33.9763 28.7235H32.6135L32.3316 27.9507ZM9.11937 39.3754V37.151H9.38828C9.59714 37.151 9.80078 37.1536 10.0018 37.1484C10.2054 37.1484 10.4091 37.1301 10.6101 37.0988C10.9182 37.0675 11.1636 36.8325 11.1975 36.5322C11.2419 36.2999 11.2706 36.0675 11.2837 35.8326C11.2889 32.8198 11.2889 29.807 11.2837 26.7968C11.2811 25.7316 11.0226 25.4888 9.93393 25.4679H9.41439L9.11937 25.4705V23.2566H18.7687C18.8966 23.9745 18.9071 24.7108 18.8 25.4339L18.6852 25.4444L18.3823 25.4731C18.2962 25.4757 18.21 25.4757 18.1212 25.4757H17.9385C16.9464 25.5097 16.7114 25.7185 16.7114 26.6767C16.701 29.76 16.701 32.8433 16.7114 35.9292C16.7141 36.9186 16.949 37.1301 17.9672 37.151C18.1474 37.1536 18.3275 37.151 18.5207 37.151H18.8366V39.3754H9.11937Z" fill="url(#paint0_linear_4629_110354)"></path>
<defs>
<linearGradient id="paint0_linear_4629_110354" x1="32" y1="0" x2="32" y2="62.6581" gradientUnits="userSpaceOnUse">
<stop stop-color="white" stop-opacity="0"></stop>
<stop offset="1" stop-color="white" stop-opacity="0.3"></stop>
</linearGradient>
</defs>
</svg>