<svg width="32" height="32" viewBox="0 0 32 32" fill="none" xmlns="http://www.w3.org/2000/svg">
<path d="M19.3112 12.8395C19.3111 10.8617 18.604 9.5294 17.5742 8.67285C16.5174 7.79387 15.0173 7.33301 13.3216 7.33301C11.626 7.33308 10.1257 7.79394 9.06901 8.67285C8.03951 9.52942 7.33337 10.8621 7.33333 12.8395C7.33333 14.3027 7.72095 15.4028 8.31901 16.2132C8.65442 16.6676 8.70429 17.2497 8.69531 17.6247C8.68557 18.0286 8.5986 18.5108 8.39192 18.8942C8.36661 18.9411 8.36909 18.9659 8.37109 18.9788C8.37433 18.9994 8.38794 19.0387 8.42838 19.0843C8.51554 19.1823 8.65871 19.236 8.80338 19.2028C9.55783 19.0298 10.3169 18.8027 10.9596 18.5114C11.3848 18.3187 11.8599 18.2376 12.3346 18.2913C12.6558 18.3277 12.9856 18.346 13.3216 18.346C15.0172 18.346 16.5174 17.8863 17.5742 17.0075C18.6041 16.1509 19.3112 14.8175 19.3112 12.8395ZM21.3112 12.8395C21.3112 15.349 20.3857 17.2703 18.8529 18.5452C17.347 19.7974 15.3523 20.346 13.3216 20.346C12.9135 20.346 12.5083 20.3248 12.1094 20.2796C12.0042 20.2677 11.8915 20.2848 11.7852 20.333C10.9764 20.6996 10.0767 20.9625 9.24999 21.152C8.33841 21.361 7.46669 21.0135 6.93229 20.4111C6.38482 19.7939 6.14666 18.8441 6.63151 17.945C6.63376 17.9396 6.64982 17.9044 6.66536 17.8343C6.68218 17.7582 6.69311 17.6675 6.69531 17.5765C6.69751 17.484 6.68942 17.4114 6.67968 17.3656C6.67861 17.3605 6.67669 17.3562 6.67578 17.3525C5.81332 16.1613 5.33333 14.6478 5.33333 12.8395C5.33338 10.3304 6.25779 8.40999 7.79036 7.13509C9.29616 5.88265 11.2908 5.33308 13.3216 5.33301C15.3525 5.33301 17.347 5.88263 18.8529 7.13509C20.3856 8.40999 21.3111 10.3302 21.3112 12.8395Z" fill="#07061A"></path>
<path d="M24.6442 18.1729C24.6441 16.6092 24.2007 15.4585 23.527 14.6312C23.1785 14.2029 23.2434 13.5723 23.6715 13.2236C24.0997 12.8753 24.7291 12.9403 25.0778 13.3682C26.0787 14.5973 26.6441 16.2107 26.6442 18.1729C26.6442 19.9828 26.1618 21.4967 25.2978 22.6885C25.3108 22.6635 25.3044 22.6616 25.2965 22.6989C25.2868 22.7448 25.28 22.8175 25.2822 22.9098C25.2844 23.0008 25.2953 23.0915 25.3121 23.1676C25.3274 23.2363 25.342 23.2719 25.3447 23.2783C25.8296 24.1775 25.5927 25.1272 25.0452 25.7445C24.5108 26.3469 23.6392 26.6943 22.7275 26.4853C21.9005 26.2958 21 26.033 20.1911 25.6663C20.0849 25.6183 19.9731 25.6011 19.8681 25.613C19.4691 25.6581 19.0629 25.6794 18.6546 25.6794C16.7701 25.6793 14.9206 25.2071 13.4606 24.1403C13.0147 23.8145 12.9173 23.1891 13.2431 22.7432C13.569 22.2972 14.1943 22.1999 14.6403 22.5257C15.6784 23.2842 17.0841 23.6793 18.6546 23.6794C18.9909 23.6794 19.3215 23.661 19.6429 23.6247C20.1176 23.571 20.5927 23.652 21.0179 23.8447C21.6607 24.136 22.4197 24.3632 23.1741 24.5361C23.3189 24.5693 23.462 24.5158 23.5491 24.4176C23.5895 24.3722 23.6018 24.3328 23.6051 24.3122C23.6071 24.2993 23.6096 24.2745 23.5843 24.2275C23.3778 23.8442 23.2919 23.3617 23.2822 22.958C23.2732 22.583 23.3218 22.0009 23.6572 21.5465C24.2555 20.7361 24.6442 19.6363 24.6442 18.1729Z" fill="#07061A"></path>
</svg>