<svg width="18" height="18" viewBox="0 0 18 18" fill="none" xmlns="http://www.w3.org/2000/svg">
<path d="M13.875 5.0625C13.875 4.54473 13.4553 4.125 12.9375 4.125H5.0625C4.54473 4.125 4.125 4.54473 4.125 5.0625V12.9375C4.125 13.4553 4.54473 13.875 5.0625 13.875H12.9375C13.4553 13.875 13.875 13.4553 13.875 12.9375V5.0625ZM15 12.9375C15 14.0766 14.0766 15 12.9375 15H5.0625C3.92341 15 3 14.0766 3 12.9375V5.0625C3 3.92341 3.92341 3 5.0625 3H12.9375C14.0766 3 15 3.92341 15 5.0625V12.9375Z" fill="#628CBC"></path>
<path d="M6 11.4375V7.3125C6 7.00184 6.25184 6.75 6.5625 6.75C6.87316 6.75 7.125 7.00184 7.125 7.3125V11.4375C7.125 11.7482 6.87316 12 6.5625 12C6.25184 12 6 11.7482 6 11.4375Z" fill="#628CBC"></path>
<path d="M10.875 11.4375V7.3125C10.875 7.00184 11.1268 6.75 11.4375 6.75C11.7482 6.75 12 7.00184 12 7.3125V11.4375C12 11.7482 11.7482 12 11.4375 12C11.1268 12 10.875 11.7482 10.875 11.4375Z" fill="#628CBC"></path>
<path d="M8.4375 11.4375V9.5625C8.4375 9.25184 8.68934 9 9 9C9.31066 9 9.5625 9.25184 9.5625 9.5625V11.4375C9.5625 11.7482 9.31066 12 9 12C8.68934 12 8.4375 11.7482 8.4375 11.4375Z" fill="#628CBC"></path>
</svg>