<svg width="18" height="18" viewBox="0 0 18 18" fill="none" xmlns="http://www.w3.org/2000/svg">
<path d="M3.1648 11.4148C3.38446 11.1951 3.74054 11.1951 3.96021 11.4148L6.58521 14.0398C6.80488 14.2595 6.80488 14.6155 6.58521 14.8352C6.36554 15.0549 6.00946 15.0549 5.78979 14.8352L3.1648 12.2102C2.94513 11.9905 2.94513 11.6345 3.1648 11.4148Z" fill="#628CBC"></path>
<path d="M6.58521 11.4148C6.36554 11.1951 6.00947 11.1951 5.7898 11.4148L3.1648 14.0398C2.94513 14.2595 2.94513 14.6155 3.1648 14.8352C3.38447 15.0549 3.74054 15.0549 3.96021 14.8352L6.58521 12.2102C6.80488 11.9905 6.80488 11.6345 6.58521 11.4148Z" fill="#628CBC"></path>
<path d="M11.4375 13.875C11.7482 13.875 12 14.1268 12 14.4375C12 14.7482 11.7482 15 11.4375 15H8.8125C8.50184 15 8.25 14.7482 8.25 14.4375C8.25 14.1268 8.50184 13.875 8.8125 13.875H11.4375Z" fill="#628CBC"></path>
<path d="M11.4375 6C11.7482 6 12 6.25184 12 6.5625C12 6.87316 11.7482 7.125 11.4375 7.125H6.5625C6.25184 7.125 6 6.87316 6 6.5625C6 6.25184 6.25184 6 6.5625 6H11.4375Z" fill="#628CBC"></path>
<path d="M10.6875 8.25C10.9982 8.25 11.25 8.50184 11.25 8.8125C11.25 9.12316 10.9982 9.375 10.6875 9.375H7.3125C7.00184 9.375 6.75 9.12316 6.75 8.8125C6.75 8.50184 7.00184 8.25 7.3125 8.25H10.6875Z" fill="#628CBC"></path>
<path d="M13.875 14.4375V5.0625C13.875 4.54473 13.4553 4.125 12.9375 4.125H5.0625C4.54473 4.125 4.125 4.54473 4.125 5.0625V9.1875C4.125 9.49816 3.87316 9.75 3.5625 9.75C3.25184 9.75 3 9.49816 3 9.1875V5.0625C3 3.92341 3.92341 3 5.0625 3H12.9375C14.0766 3 15 3.92341 15 5.0625V14.4375C15 14.7482 14.7482 15 14.4375 15C14.1268 15 13.875 14.7482 13.875 14.4375Z" fill="#628CBC"></path>
</svg>