<svg width="18" height="18" viewBox="0 0 18 18" fill="none" xmlns="http://www.w3.org/2000/svg">
<path d="M14.3364 9.00952C14.5072 8.97831 14.683 9.02713 14.8125 9.14282C14.9259 9.24417 14.9924 9.38673 14.9993 9.53687L14.9985 9.60132V9.60645C14.9983 9.60941 14.9975 9.61369 14.9971 9.6189C14.9963 9.62945 14.995 9.64503 14.9934 9.66431C14.9902 9.7028 14.9857 9.75805 14.9788 9.82764C14.9648 9.96731 14.9426 10.1655 14.9092 10.4026C14.8427 10.8747 14.7309 11.5113 14.5481 12.1538C14.3675 12.7886 14.1067 13.4695 13.7249 14.0032C13.3402 14.5407 12.776 15 12 15C11.343 15 10.7077 14.8421 10.1865 14.5151C10.142 14.5792 10.1071 14.6315 10.0825 14.6689C10.0677 14.6914 10.0566 14.7085 10.0496 14.7195C10.0462 14.7248 10.0437 14.7288 10.0422 14.7312C10.0415 14.7324 10.041 14.7338 10.0408 14.7341C9.87728 14.9982 9.53073 15.0792 9.2666 14.9158C9.0025 14.7523 8.92082 14.4057 9.08423 14.1416L9.5625 14.4375C9.08423 14.1414 9.08416 14.1417 9.08423 14.1416L9.08569 14.1387C9.08652 14.1373 9.08801 14.1357 9.08936 14.1335C9.09209 14.1292 9.09552 14.1228 9.10034 14.1152C9.11003 14.1 9.12428 14.0786 9.14209 14.0515C9.17775 13.9972 9.22974 13.9199 9.2959 13.8259C9.32074 13.7906 9.34899 13.7538 9.37793 13.7139C9.13608 13.3256 9 12.8609 9 12.3362C9.00001 11.6035 9.47387 11.0491 9.98291 10.6611C10.5035 10.2644 11.1721 9.9539 11.8022 9.71704C12.439 9.4777 13.0712 9.30141 13.541 9.1853C13.7767 9.12705 13.9736 9.08338 14.1123 9.0542C14.1817 9.0396 14.2368 9.0287 14.2749 9.02124C14.2938 9.01754 14.3085 9.01441 14.3188 9.01245C14.324 9.01147 14.3284 9.01079 14.3313 9.01025C14.3327 9.00999 14.3341 9.00968 14.335 9.00952H14.3364ZM6.375 4.89331C5.12131 5.69634 4.25975 7.05625 4.14038 8.625H4.6875C5.61948 8.625 6.375 7.86948 6.375 6.9375V4.89331ZM10.125 12.3362C10.125 12.4825 10.1437 12.6164 10.1748 12.7397C10.6149 12.2665 11.1788 11.7583 11.8206 11.4185C12.0951 11.2731 12.4362 11.3783 12.5815 11.6528C12.7267 11.9274 12.6217 12.2678 12.3472 12.4131C11.8062 12.6995 11.2992 13.1665 10.8904 13.623C11.1878 13.7811 11.5658 13.875 12 13.875C12.2746 13.875 12.5406 13.7249 12.8101 13.3484C13.0822 12.968 13.2995 12.4301 13.4656 11.8462C13.625 11.2858 13.7266 10.7196 13.7893 10.2825C13.3478 10.3922 12.7704 10.5543 12.1978 10.7695C11.6093 10.9907 11.059 11.2563 10.6655 11.5562C10.2606 11.8647 10.125 12.1276 10.125 12.3362ZM7.875 10.5C7.875 11.3562 7.61029 12.1851 7.36304 12.7786C7.24742 13.056 7.13082 13.2907 7.03931 13.4641C7.23795 13.5515 7.44313 13.6269 7.65454 13.6875C7.95313 13.773 8.12593 14.084 8.04053 14.3826C7.95502 14.6811 7.64404 14.8539 7.34546 14.7686C7.06018 14.6869 6.78321 14.585 6.51709 14.4639C4.44355 13.5201 3 11.4291 3 9C3 5.68629 5.68629 3 9 3C11.0907 3 12.9314 4.07001 14.0046 5.68945C14.3383 6.19295 14.5981 6.75031 14.7686 7.34546C14.8539 7.64404 14.6811 7.95502 14.3826 8.04053C14.084 8.12593 13.773 7.95313 13.6875 7.65454C13.5564 7.19699 13.3593 6.76715 13.1082 6.375H11.25C10.7636 6.375 10.3005 6.78937 10.1711 7.42017C10.0298 8.10995 9.7881 8.60599 9.479 8.97803C9.17218 9.34726 8.82707 9.55912 8.55249 9.71338C8.24771 9.8846 8.10976 9.95221 8.0061 10.0591C7.94643 10.1206 7.875 10.2193 7.875 10.5ZM7.5 6.9375C7.5 8.4908 6.2408 9.75 4.6875 9.75H4.18286C4.38055 11.0302 5.07614 12.1461 6.06665 12.8936C6.14121 12.7497 6.23395 12.5637 6.32446 12.3464C6.54593 11.8149 6.75 11.1437 6.75 10.5C6.75 9.9746 6.90425 9.57939 7.19824 9.27612C7.44836 9.01819 7.79276 8.85005 8.00171 8.73267C8.24082 8.59833 8.4409 8.46785 8.61401 8.25952C8.78482 8.05397 8.9578 7.73646 9.06885 7.19458C9.27217 6.20239 10.0796 5.25 11.25 5.25H12.1135C11.2686 4.54764 10.1839 4.125 9 4.125C8.47657 4.125 7.97261 4.20814 7.5 4.36084V6.9375Z" fill="#628CBC"></path>
</svg>