<svg width="18" height="18" viewBox="0 0 18 18" fill="none" xmlns="http://www.w3.org/2000/svg">
<path d="M13.875 6.5625C13.875 6.04473 13.4553 5.625 12.9375 5.625H5.0625C4.54473 5.625 4.125 6.04473 4.125 6.5625V12.9375C4.125 13.4553 4.54473 13.875 5.0625 13.875H12.9375C13.4553 13.875 13.875 13.4553 13.875 12.9375V6.5625ZM15 12.9375C15 14.0766 14.0766 15 12.9375 15H5.0625C3.92341 15 3 14.0766 3 12.9375V6.5625C3 5.42341 3.92341 4.5 5.0625 4.5H12.9375C14.0766 4.5 15 5.42341 15 6.5625V12.9375Z" fill="#628CBC"></path>
<path d="M5.4375 6.1875V3.5625C5.4375 3.25184 5.68934 3 6 3C6.31066 3 6.5625 3.25184 6.5625 3.5625V6.1875C6.5625 6.49816 6.31066 6.75 6 6.75C5.68934 6.75 5.4375 6.49816 5.4375 6.1875Z" fill="#628CBC"></path>
<path d="M11.4375 6.1875V3.5625C11.4375 3.25184 11.6893 3 12 3C12.3107 3 12.5625 3.25184 12.5625 3.5625V6.1875C12.5625 6.49816 12.3107 6.75 12 6.75C11.6893 6.75 11.4375 6.49816 11.4375 6.1875Z" fill="#628CBC"></path>
<path d="M12.1875 7.5C12.4982 7.5 12.75 7.75184 12.75 8.0625C12.75 8.37316 12.4982 8.625 12.1875 8.625H5.8125C5.50184 8.625 5.25 8.37316 5.25 8.0625C5.25 7.75184 5.50184 7.5 5.8125 7.5H12.1875Z" fill="#628CBC"></path>
</svg>