<svg width="18" height="18" viewBox="0 0 18 18" fill="none" xmlns="http://www.w3.org/2000/svg">
<path d="M3 12.1875V5.81252C3 4.25922 4.2592 3.00002 5.8125 3.00002H7.6875C7.99816 3.00002 8.25 3.25186 8.25 3.56252C8.25 3.87318 7.99816 4.12502 7.6875 4.12502H5.8125C4.88052 4.12502 4.125 4.88054 4.125 5.81252V12.1875C4.125 13.1195 4.88052 13.875 5.8125 13.875H10.6875C11.6195 13.875 12.375 13.1195 12.375 12.1875V11.8125C12.375 11.5019 12.6268 11.25 12.9375 11.25C13.2482 11.25 13.5 11.5019 13.5 11.8125V12.1875C13.5 13.7408 12.2408 15 10.6875 15H5.8125C4.2592 15 3 13.7408 3 12.1875Z" fill="#628CBC"></path>
<path d="M11.8066 3.54787C12.5372 2.81741 13.7216 2.81735 14.4521 3.54787C15.1827 4.27839 15.1826 5.46282 14.4521 6.19338L11.9897 8.65578C11.713 8.93252 11.366 9.12922 10.9863 9.22414L8.94873 9.73317C8.7571 9.78102 8.55447 9.7249 8.4148 9.58522C8.27512 9.44555 8.219 9.24292 8.26685 9.05129L8.77588 7.01369C8.8708 6.63401 9.0675 6.28701 9.34424 6.01027L11.8066 3.54787ZM13.6567 4.34328C13.3656 4.0521 12.8933 4.05216 12.6021 4.34328L10.1396 6.80568C10.0071 6.93819 9.91341 7.10436 9.86792 7.28615L9.58521 8.41408L10.7139 8.1321C10.8957 8.08661 11.0618 7.99288 11.1943 7.86037L13.6567 5.39797C13.9479 5.10675 13.9479 4.63446 13.6567 4.34328Z" fill="#628CBC"></path>
<path d="M10.6875 10.875C10.9982 10.875 11.25 11.1269 11.25 11.4375C11.25 11.7482 10.9982 12 10.6875 12H5.8125C5.50184 12 5.25 11.7482 5.25 11.4375C5.25 11.1269 5.50184 10.875 5.8125 10.875H10.6875Z" fill="#628CBC"></path>
<path d="M6.9375 8.62502C7.24816 8.62502 7.5 8.87686 7.5 9.18752C7.5 9.49818 7.24816 9.75002 6.9375 9.75002H5.8125C5.50184 9.75002 5.25 9.49818 5.25 9.18752C5.25 8.87686 5.50184 8.62502 5.8125 8.62502H6.9375Z" fill="#628CBC"></path>
<path d="M6.9375 6.37502C7.24816 6.37502 7.5 6.62686 7.5 6.93752C7.5 7.24818 7.24816 7.50002 6.9375 7.50002H5.8125C5.50184 7.50002 5.25 7.24818 5.25 6.93752C5.25 6.62686 5.50184 6.37502 5.8125 6.37502H6.9375Z" fill="#628CBC"></path>
</svg>