<svg width="18" height="18" viewBox="0 0 18 18" fill="none" xmlns="http://www.w3.org/2000/svg">
<path d="M12.1875 6.9375C12.1875 6.68528 12.0619 6.40026 11.8308 6.16919C11.5997 5.93812 11.3147 5.8125 11.0625 5.8125C10.7518 5.8125 10.5 5.56066 10.5 5.25C10.5 4.93934 10.7518 4.6875 11.0625 4.6875C11.3147 4.6875 11.5997 4.56188 11.8308 4.33081C12.0619 4.09974 12.1875 3.81472 12.1875 3.5625C12.1875 3.25184 12.4393 3 12.75 3C13.0607 3 13.3125 3.25184 13.3125 3.5625C13.3125 3.81472 13.4381 4.09974 13.6692 4.33081C13.9003 4.56188 14.1853 4.6875 14.4375 4.6875C14.7482 4.6875 15 4.93934 15 5.25C15 5.56066 14.7482 5.8125 14.4375 5.8125C14.1853 5.8125 13.9003 5.93812 13.6692 6.16919C13.4381 6.40026 13.3125 6.68528 13.3125 6.9375C13.3125 7.24816 13.0607 7.5 12.75 7.5C12.4393 7.5 12.1875 7.24816 12.1875 6.9375ZM12.627 5.12695C12.5842 5.1697 12.5385 5.21 12.4922 5.25C12.5385 5.29 12.5842 5.3303 12.627 5.37305C12.6696 5.41567 12.7101 5.4609 12.75 5.50708C12.7899 5.4609 12.8304 5.41567 12.873 5.37305C12.9157 5.33043 12.9609 5.28989 13.0071 5.25C12.9609 5.21011 12.9157 5.16957 12.873 5.12695C12.8303 5.0842 12.79 5.03852 12.75 4.99219C12.71 5.03852 12.6697 5.0842 12.627 5.12695Z" fill="#628CBC"></path>
<path d="M12.1875 14.4375C12.1875 14.1853 12.0619 13.9003 11.8308 13.6692C11.5997 13.4381 11.3147 13.3125 11.0625 13.3125C10.7518 13.3125 10.5 13.0607 10.5 12.75C10.5 12.4393 10.7518 12.1875 11.0625 12.1875C11.3147 12.1875 11.5997 12.0619 11.8308 11.8308C12.0619 11.5997 12.1875 11.3147 12.1875 11.0625C12.1875 10.7518 12.4393 10.5 12.75 10.5C13.0607 10.5 13.3125 10.7518 13.3125 11.0625C13.3125 11.3147 13.4381 11.5997 13.6692 11.8308C13.9003 12.0619 14.1853 12.1875 14.4375 12.1875C14.7482 12.1875 15 12.4393 15 12.75C15 13.0607 14.7482 13.3125 14.4375 13.3125C14.1853 13.3125 13.9003 13.4381 13.6692 13.6692C13.4381 13.9003 13.3125 14.1853 13.3125 14.4375C13.3125 14.7482 13.0607 15 12.75 15C12.4393 15 12.1875 14.7482 12.1875 14.4375ZM12.627 12.627C12.5842 12.6697 12.5385 12.71 12.4922 12.75C12.5385 12.79 12.5842 12.8303 12.627 12.873C12.6696 12.9157 12.7101 12.9609 12.75 13.0071C12.7899 12.9609 12.8304 12.9157 12.873 12.873C12.9157 12.8304 12.9609 12.7899 13.0071 12.75C12.9609 12.7101 12.9157 12.6696 12.873 12.627C12.8303 12.5842 12.79 12.5385 12.75 12.4922C12.71 12.5385 12.6697 12.5842 12.627 12.627Z" fill="#628CBC"></path>
<path d="M6.1875 12.1875C6.1875 11.5529 5.87841 10.8926 5.36792 10.3821C4.85743 9.87159 4.19708 9.5625 3.5625 9.5625C3.25184 9.5625 3 9.31066 3 9C3 8.68934 3.25184 8.4375 3.5625 8.4375C4.19708 8.4375 4.85743 8.12841 5.36792 7.61792C5.87841 7.10743 6.1875 6.44708 6.1875 5.8125C6.1875 5.50184 6.43934 5.25 6.75 5.25C7.06066 5.25 7.3125 5.50184 7.3125 5.8125C7.3125 6.44708 7.62159 7.10743 8.13208 7.61792C8.64257 8.12841 9.30292 8.4375 9.9375 8.4375C10.2482 8.4375 10.5 8.68934 10.5 9C10.5 9.31066 10.2482 9.5625 9.9375 9.5625C9.30292 9.5625 8.64257 9.87159 8.13208 10.3821C7.62159 10.8926 7.3125 11.5529 7.3125 12.1875C7.3125 12.4982 7.06066 12.75 6.75 12.75C6.43934 12.75 6.1875 12.4982 6.1875 12.1875ZM6.75 7.67651C6.58217 7.94463 6.3839 8.19276 6.16333 8.41333C5.94276 8.6339 5.69463 8.83217 5.42651 9C5.69463 9.16783 5.94276 9.3661 6.16333 9.58667C6.38376 9.8071 6.58224 10.0548 6.75 10.3228C6.91776 10.0548 7.11624 9.8071 7.33667 9.58667C7.5571 9.36624 7.80484 9.16776 8.07275 9C7.80484 8.83224 7.5571 8.63376 7.33667 8.41333C7.1161 8.19276 6.91783 7.94463 6.75 7.67651Z" fill="#628CBC"></path>
</svg>