<svg width="20" height="20" viewBox="0 0 20 20" fill="none" xmlns="http://www.w3.org/2000/svg">
<path d="M13.5443 7.7085C13.5443 7.42825 13.4047 7.11157 13.1479 6.85482C12.8912 6.59807 12.5745 6.4585 12.2943 6.4585C11.9491 6.4585 11.6693 6.17867 11.6693 5.8335C11.6693 5.48832 11.9491 5.2085 12.2943 5.2085C12.5745 5.2085 12.8912 5.06892 13.1479 4.81217C13.4047 4.55543 13.5443 4.23875 13.5443 3.9585C13.5443 3.61332 13.8241 3.3335 14.1693 3.3335C14.5144 3.3335 14.7943 3.61332 14.7943 3.9585C14.7943 4.23875 14.9338 4.55543 15.1906 4.81217C15.4473 5.06892 15.764 5.2085 16.0443 5.2085C16.3894 5.2085 16.6693 5.48832 16.6693 5.8335C16.6693 6.17867 16.3894 6.4585 16.0443 6.4585C15.764 6.4585 15.4473 6.59807 15.1906 6.85482C14.9338 7.11157 14.7943 7.42825 14.7943 7.7085C14.7943 8.05367 14.5144 8.3335 14.1693 8.3335C13.8241 8.3335 13.5443 8.05367 13.5443 7.7085ZM14.0326 5.69678C13.9851 5.74428 13.9343 5.78905 13.8828 5.8335C13.9343 5.87794 13.9851 5.92271 14.0326 5.97021C14.0799 6.01757 14.125 6.06783 14.1693 6.11914C14.2136 6.06783 14.2586 6.01757 14.306 5.97021C14.3533 5.92286 14.4036 5.87782 14.4549 5.8335C14.4036 5.78918 14.3533 5.74413 14.306 5.69678C14.2585 5.64928 14.2137 5.59852 14.1693 5.54704C14.1248 5.59852 14.0801 5.64928 14.0326 5.69678Z" fill="#070628"></path>
<path d="M13.5443 16.0418C13.5443 15.7616 13.4047 15.4449 13.1479 15.1882C12.8912 14.9314 12.5745 14.7918 12.2943 14.7918C11.9491 14.7918 11.6693 14.512 11.6693 14.1668C11.6693 13.8217 11.9491 13.5418 12.2943 13.5418C12.5745 13.5418 12.8912 13.4023 13.1479 13.1455C13.4047 12.8888 13.5443 12.5721 13.5443 12.2918C13.5443 11.9467 13.8241 11.6668 14.1693 11.6668C14.5144 11.6668 14.7943 11.9467 14.7943 12.2918C14.7943 12.5721 14.9338 12.8888 15.1906 13.1455C15.4473 13.4023 15.764 13.5418 16.0443 13.5418C16.3894 13.5418 16.6693 13.8217 16.6693 14.1668C16.6693 14.512 16.3894 14.7918 16.0443 14.7918C15.764 14.7918 15.4473 14.9314 15.1906 15.1882C14.9338 15.4449 14.7943 15.7616 14.7943 16.0418C14.7943 16.387 14.5144 16.6668 14.1693 16.6668C13.8241 16.6668 13.5443 16.387 13.5443 16.0418ZM14.0326 14.0301C13.9851 14.0776 13.9343 14.1224 13.8828 14.1668C13.9343 14.2113 13.9851 14.256 14.0326 14.3035C14.0799 14.3509 14.125 14.4012 14.1693 14.4525C14.2136 14.4012 14.2586 14.3509 14.306 14.3035C14.3533 14.2562 14.4036 14.2111 14.4549 14.1668C14.4036 14.1225 14.3533 14.0775 14.306 14.0301C14.2585 13.9826 14.2137 13.9318 14.1693 13.8804C14.1248 13.9318 14.0801 13.9826 14.0326 14.0301Z" fill="#070628"></path>
<path d="M6.8776 13.5418C6.8776 12.8367 6.53417 12.103 5.96696 11.5358C5.39975 10.9686 4.66602 10.6252 3.96094 10.6252C3.61576 10.6252 3.33594 10.3453 3.33594 10.0002C3.33594 9.65498 3.61576 9.37516 3.96094 9.37516C4.66602 9.37516 5.39975 9.03172 5.96696 8.46452C6.53417 7.89731 6.8776 7.16358 6.8776 6.4585C6.8776 6.11332 7.15743 5.8335 7.5026 5.8335C7.84778 5.8335 8.1276 6.11332 8.1276 6.4585C8.1276 7.16358 8.47104 7.89731 9.03825 8.46452C9.60545 9.03172 10.3392 9.37516 11.0443 9.37516C11.3894 9.37516 11.6693 9.65498 11.6693 10.0002C11.6693 10.3453 11.3894 10.6252 11.0443 10.6252C10.3392 10.6252 9.60545 10.9686 9.03825 11.5358C8.47104 12.103 8.1276 12.8367 8.1276 13.5418C8.1276 13.887 7.84778 14.1668 7.5026 14.1668C7.15743 14.1668 6.8776 13.887 6.8776 13.5418ZM7.5026 8.52962C7.31612 8.82753 7.09583 9.10322 6.85075 9.34831C6.60567 9.59339 6.32997 9.81368 6.03206 10.0002C6.32997 10.1866 6.60567 10.4069 6.85075 10.652C7.09567 10.8969 7.3162 11.1722 7.5026 11.4699C7.68901 11.1722 7.90954 10.8969 8.15446 10.652C8.39938 10.4071 8.67465 10.1866 8.97233 10.0002C8.67465 9.81376 8.39938 9.59323 8.15446 9.34831C7.90938 9.10322 7.68909 8.82753 7.5026 8.52962Z" fill="#070628"></path>
</svg>