<svg width="20" height="20" viewBox="0 0 20 20" fill="none" xmlns="http://www.w3.org/2000/svg">
<path d="M9.80894 3.36437C9.95569 3.31649 10.1159 3.32426 10.2582 3.38797L16.2998 6.0963C16.5109 6.1909 16.6523 6.39453 16.6677 6.62528L16.0443 6.66678C16.6143 6.62878 16.6634 6.6253 16.6677 6.62528L16.6685 6.6269V6.63585C16.6688 6.64152 16.6696 6.64956 16.6701 6.65946C16.6712 6.67957 16.6726 6.70825 16.6742 6.7449C16.6774 6.8188 16.681 6.92565 16.6831 7.05985C16.6874 7.32805 16.6856 7.70866 16.662 8.16418C16.6149 9.07173 16.4802 10.2946 16.124 11.5276C15.7691 12.7565 15.1816 14.0382 14.201 15.0188C13.2042 16.0157 11.834 16.6668 10.0026 16.6668C8.17132 16.6668 6.80106 16.0157 5.80422 15.0188C4.82365 14.0382 4.2362 12.7564 3.88121 11.5276C3.52503 10.2946 3.39035 9.07172 3.34329 8.16418C3.31967 7.70866 3.31787 7.32805 3.32213 7.05985C3.32426 6.92565 3.3279 6.8188 3.33108 6.7449C3.33265 6.70825 3.33404 6.67958 3.33515 6.65946C3.33569 6.64956 3.33643 6.64152 3.33678 6.63585C3.33695 6.63301 3.33748 6.63025 3.33759 6.62853V6.62609C3.33761 6.6258 3.33746 6.62521 3.96096 6.66678L3.33759 6.62609C3.35297 6.39534 3.4944 6.1909 3.70543 6.0963L9.74709 3.38797L9.80894 3.36437ZM4.57213 7.07775V7.52209C4.57476 7.69355 4.58068 7.88739 4.59166 8.09907C4.63574 8.94928 4.76154 10.0703 5.08238 11.1809C5.40446 12.2958 5.91087 13.3579 6.68801 14.135C7.44894 14.896 8.50073 15.4168 10.0026 15.4168C11.5046 15.4168 12.5563 14.896 13.3172 14.135C14.0944 13.3579 14.6008 12.2958 14.9229 11.1809C15.2437 10.0703 15.3695 8.94928 15.4136 8.09907C15.4355 7.67585 15.437 7.32383 15.4331 7.07938L15.4323 7.07775L10.0026 4.64285L4.57213 7.07775Z" fill="#070628"></path>
</svg>