<svg width="20" height="20" viewBox="0 0 20 20" fill="none" xmlns="http://www.w3.org/2000/svg">
<path d="M3.51904 12.6833C3.76312 12.4392 4.15875 12.4392 4.40283 12.6833L7.3195 15.5999C7.56358 15.844 7.56358 16.2396 7.3195 16.4837C7.07542 16.7278 6.67979 16.7278 6.43571 16.4837L3.51904 13.5671C3.27497 13.323 3.27497 12.9273 3.51904 12.6833Z" fill="#070628"></path>
<path d="M7.3195 12.6833C7.07542 12.4392 6.67979 12.4392 6.43571 12.6833L3.51904 15.5999C3.27497 15.844 3.27497 16.2396 3.51904 16.4837C3.76312 16.7278 4.15875 16.7278 4.40283 16.4837L7.3195 13.5671C7.56358 13.323 7.56358 12.9273 7.3195 12.6833Z" fill="#070628"></path>
<path d="M12.7109 15.4168C13.0561 15.4168 13.3359 15.6967 13.3359 16.0418C13.3359 16.387 13.0561 16.6668 12.7109 16.6668H9.79427C9.44909 16.6668 9.16927 16.387 9.16927 16.0418C9.16927 15.6967 9.44909 15.4168 9.79427 15.4168H12.7109Z" fill="#070628"></path>
<path d="M12.7109 6.66683C13.0561 6.66683 13.3359 6.94665 13.3359 7.29183C13.3359 7.63701 13.0561 7.91683 12.7109 7.91683H7.29427C6.94909 7.91683 6.66927 7.63701 6.66927 7.29183C6.66927 6.94665 6.94909 6.66683 7.29427 6.66683H12.7109Z" fill="#070628"></path>
<path d="M11.8776 9.16683C12.2228 9.16683 12.5026 9.44665 12.5026 9.79183C12.5026 10.137 12.2228 10.4168 11.8776 10.4168H8.1276C7.78243 10.4168 7.5026 10.137 7.5026 9.79183C7.5026 9.44665 7.78243 9.16683 8.1276 9.16683H11.8776Z" fill="#070628"></path>
<path d="M15.4193 16.0418V5.62516C15.4193 5.04987 14.9529 4.5835 14.3776 4.5835H5.6276C5.05231 4.5835 4.58594 5.04987 4.58594 5.62516V10.2085C4.58594 10.5537 4.30612 10.8335 3.96094 10.8335C3.61576 10.8335 3.33594 10.5537 3.33594 10.2085V5.62516C3.33594 4.35951 4.36195 3.3335 5.6276 3.3335H14.3776C15.6433 3.3335 16.6693 4.35951 16.6693 5.62516V16.0418C16.6693 16.387 16.3894 16.6668 16.0443 16.6668C15.6991 16.6668 15.4193 16.387 15.4193 16.0418Z" fill="#070628"></path>
</svg>