<svg width="20" height="20" viewBox="0 0 20 20" fill="none" xmlns="http://www.w3.org/2000/svg">
<path d="M15.4193 5.62516C15.4193 5.04987 14.9529 4.5835 14.3776 4.5835H5.6276C5.05231 4.5835 4.58594 5.04987 4.58594 5.62516V11.0418C4.58594 11.6171 5.05231 12.0835 5.6276 12.0835H14.3776C14.9529 12.0835 15.4193 11.6171 15.4193 11.0418V5.62516ZM8.74935 13.3335C8.7346 13.5787 8.70261 13.8763 8.6346 14.1937C8.55362 14.5716 8.41418 15.0057 8.17806 15.4168H11.8271C11.591 15.0057 11.4516 14.5716 11.3706 14.1937C11.3026 13.8763 11.2706 13.5787 11.2559 13.3335H8.74935ZM16.6693 11.0418C16.6693 12.3075 15.6433 13.3335 14.3776 13.3335H12.5091C12.5226 13.5123 12.5471 13.7178 12.5929 13.9316C12.7332 14.5863 13.0325 15.1913 13.6151 15.4827C13.8742 15.6123 14.0103 15.903 13.9438 16.1851C13.8773 16.4672 13.6258 16.6668 13.3359 16.6668H6.66927C6.37941 16.6668 6.12796 16.4672 6.06136 16.1851C5.99491 15.903 6.13096 15.6123 6.39014 15.4827C6.97269 15.1913 7.27199 14.5863 7.41227 13.9316C7.4581 13.7178 7.48257 13.5123 7.49609 13.3335H5.6276C4.36195 13.3335 3.33594 12.3075 3.33594 11.0418V5.62516C3.33594 4.35951 4.36195 3.3335 5.6276 3.3335H14.3776C15.6433 3.3335 16.6693 4.35951 16.6693 5.62516V11.0418Z" fill="#070628"></path>
</svg>