<svg width="20" height="20" viewBox="0 0 20 20" fill="none" xmlns="http://www.w3.org/2000/svg">
<path d="M15.8337 14.375C15.8337 15.6406 14.8076 16.6666 13.542 16.6666H6.45866C5.19301 16.6666 4.16699 15.6406 4.16699 14.375V5.62498C4.16699 4.35933 5.19301 3.33331 6.45866 3.33331H10.6253C10.7911 3.33331 10.95 3.39921 11.0672 3.51642L15.6506 8.09975C15.7678 8.21696 15.8337 8.37589 15.8337 8.54165V14.375ZM11.2503 6.87498C11.2503 7.45028 11.7167 7.91665 12.292 7.91665H13.6999L11.2503 5.4671V6.87498ZM5.41699 14.375C5.41699 14.9503 5.88336 15.4166 6.45866 15.4166H13.542C14.1173 15.4166 14.5837 14.9503 14.5837 14.375V9.16665H12.292C11.0263 9.16665 10.0003 8.14063 10.0003 6.87498V4.58331H6.45866C5.88336 4.58331 5.41699 5.04968 5.41699 5.62498V14.375Z" fill="#070628"></path>
<path d="M12.7087 12.5C13.0538 12.5 13.3337 12.7798 13.3337 13.125C13.3337 13.4702 13.0538 13.75 12.7087 13.75H7.29199C6.94681 13.75 6.66699 13.4702 6.66699 13.125C6.66699 12.7798 6.94681 12.5 7.29199 12.5H12.7087Z" fill="#070628"></path>
<path d="M9.37533 9.99998C9.7205 9.99998 10.0003 10.2798 10.0003 10.625C10.0003 10.9702 9.7205 11.25 9.37533 11.25H7.29199C6.94681 11.25 6.66699 10.9702 6.66699 10.625C6.66699 10.2798 6.94681 9.99998 7.29199 9.99998H9.37533Z" fill="#070628"></path>
</svg>