<svg width="24" height="24" viewBox="0 0 24 24" fill="none" xmlns="http://www.w3.org/2000/svg">
<path d="M16.5 8.75C16.5 8.05964 15.9404 7.5 15.25 7.5H8.75C8.05964 7.5 7.5 8.05964 7.5 8.75V15.25C7.5 15.9404 8.05964 16.5 8.75 16.5H15.25C15.9404 16.5 16.5 15.9404 16.5 15.25V8.75ZM18 15.25C18 16.7688 16.7688 18 15.25 18H8.75C7.23122 18 6 16.7688 6 15.25V8.75C6 7.23122 7.23122 6 8.75 6H15.25C16.7688 6 18 7.23122 18 8.75V15.25Z" fill="#070628"></path>
<path d="M8 6.5V4.75C8 4.33579 8.33579 4 8.75 4C9.16421 4 9.5 4.33579 9.5 4.75V6.5C9.5 6.91421 9.16421 7.25 8.75 7.25C8.33579 7.25 8 6.91421 8 6.5Z" fill="#070628"></path>
<path d="M14.5 6.5V4.75C14.5 4.33579 14.8358 4 15.25 4C15.6642 4 16 4.33579 16 4.75V6.5C16 6.91421 15.6642 7.25 15.25 7.25C14.8358 7.25 14.5 6.91421 14.5 6.5Z" fill="#070628"></path>
<path d="M8 19.25V17.75C8 17.3358 8.33579 17 8.75 17C9.16421 17 9.5 17.3358 9.5 17.75V19.25C9.5 19.6642 9.16421 20 8.75 20C8.33579 20 8 19.6642 8 19.25Z" fill="#070628"></path>
<path d="M14.5 19.25V17.75C14.5 17.3358 14.8358 17 15.25 17C15.6642 17 16 17.3358 16 17.75V19.25C16 19.6642 15.6642 20 15.25 20C14.8358 20 14.5 19.6642 14.5 19.25Z" fill="#070628"></path>
<path d="M19.25 8C19.6642 8 20 8.33579 20 8.75C20 9.16421 19.6642 9.5 19.25 9.5H17.5C17.0858 9.5 16.75 9.16421 16.75 8.75C16.75 8.33579 17.0858 8 17.5 8H19.25Z" fill="#070628"></path>
<path d="M6.25 8C6.66421 8 7 8.33579 7 8.75C7 9.16421 6.66421 9.5 6.25 9.5H4.75C4.33579 9.5 4 9.16421 4 8.75C4 8.33579 4.33579 8 4.75 8H6.25Z" fill="#070628"></path>
<path d="M19.25 14.5C19.6642 14.5 20 14.8358 20 15.25C20 15.6642 19.6642 16 19.25 16H17.5C17.0858 16 16.75 15.6642 16.75 15.25C16.75 14.8358 17.0858 14.5 17.5 14.5H19.25Z" fill="#070628"></path>
<path d="M6.25 14.5C6.66421 14.5 7 14.8358 7 15.25C7 15.6642 6.66421 16 6.25 16H4.75C4.33579 16 4 15.6642 4 15.25C4 14.8358 4.33579 14.5 4.75 14.5H6.25Z" fill="#070628"></path>
<path d="M14.25 9C14.6642 9 15 9.33579 15 9.75V14.25C15 14.6642 14.6642 15 14.25 15H9.75C9.33579 15 9 14.6642 9 14.25V9.75C9 9.33579 9.33579 9 9.75 9H14.25ZM10.5 13.5H13.5V10.5H10.5V13.5Z" fill="#070628"></path>
</svg>