<svg width="20" height="20" viewBox="0 0 20 20" fill="none" xmlns="http://www.w3.org/2000/svg">
<path d="M3.57959 3.46112C3.73477 3.34302 3.93602 3.30431 4.12402 3.35614L10.1657 5.02281C10.4984 5.11459 10.6936 5.45832 10.6019 5.79103C10.5101 6.12375 10.1664 6.31896 9.83366 6.22723L4.58301 4.77867V13.8989L10.1657 15.4395C10.4984 15.5313 10.6936 15.875 10.6019 16.2077C10.5101 16.5404 10.1664 16.7356 9.83366 16.6439L3.79199 14.9772C3.52095 14.9025 3.33301 14.6562 3.33301 14.375V3.95835C3.33301 3.76324 3.42436 3.57933 3.57959 3.46112Z" fill="#070628"></path>
<path d="M9.37467 15.8334V5.83335C9.37467 5.48817 9.6545 5.20835 9.99967 5.20835C10.3449 5.20835 10.6247 5.48817 10.6247 5.83335V15.8334C10.6247 16.1785 10.3449 16.4584 9.99967 16.4584C9.6545 16.4584 9.37467 16.1785 9.37467 15.8334Z" fill="#070628"></path>
<path d="M15.8753 3.35614C16.0633 3.30431 16.2646 3.34302 16.4198 3.46112C16.575 3.57933 16.6663 3.76324 16.6663 3.95835V14.375C16.6663 14.6562 16.4784 14.9025 16.2074 14.9772L10.1657 16.6439C9.83297 16.7356 9.48924 16.5404 9.39746 16.2077C9.30574 15.875 9.50094 15.5313 9.83366 15.4395L15.4163 13.8989V4.77867L10.1657 6.22723C9.83297 6.31896 9.48924 6.12375 9.39746 5.79103C9.30574 5.45832 9.50094 5.11459 9.83366 5.02281L15.8753 3.35614Z" fill="#070628"></path>
</svg>