<svg width="20" height="20" viewBox="0 0 20 20" fill="none" xmlns="http://www.w3.org/2000/svg">
<path d="M15.9293 10.0106C16.1191 9.97587 16.3144 10.0301 16.4583 10.1587C16.5842 10.2713 16.6582 10.4297 16.6658 10.5965L16.665 10.6681V10.6738C16.6647 10.6771 16.6638 10.6819 16.6633 10.6876C16.6624 10.6994 16.661 10.7167 16.6593 10.7381C16.6557 10.7809 16.6507 10.8423 16.643 10.9196C16.6275 11.0748 16.6028 11.295 16.5657 11.5584C16.4918 12.0829 16.3675 12.7904 16.1645 13.5042C15.9638 14.2095 15.674 14.9661 15.2498 15.5591C14.8224 16.1563 14.1955 16.6666 13.3333 16.6666C12.6032 16.6666 11.8973 16.4913 11.3183 16.1279C11.2688 16.1991 11.23 16.2572 11.2027 16.2988C11.1863 16.3238 11.1739 16.3427 11.1661 16.355C11.1624 16.3608 11.1596 16.3653 11.158 16.368C11.1571 16.3693 11.1566 16.3708 11.1563 16.3712C10.9747 16.6647 10.5896 16.7546 10.2961 16.5731C10.0027 16.3914 9.91194 16.0063 10.0935 15.7129L10.6249 16.0416C10.0935 15.7127 10.0934 15.713 10.0935 15.7129L10.0951 15.7096C10.0961 15.7081 10.0977 15.7063 10.0992 15.7039C10.1022 15.6991 10.1061 15.692 10.1114 15.6836C10.1222 15.6667 10.138 15.6429 10.1578 15.6128C10.1974 15.5525 10.2552 15.4666 10.3287 15.3621C10.3563 15.3229 10.3877 15.282 10.4198 15.2376C10.1511 14.8062 9.99992 14.2899 9.99992 13.7068C9.99993 12.8927 10.5264 12.2768 11.092 11.8457C11.6704 11.4049 12.4133 11.0599 13.1135 10.7967C13.8211 10.5308 14.5234 10.3349 15.0455 10.2059C15.3074 10.1411 15.5261 10.0926 15.6803 10.0602C15.7574 10.044 15.8186 10.0319 15.8609 10.0236C15.8819 10.0195 15.8983 10.016 15.9097 10.0138C15.9155 10.0127 15.9204 10.012 15.9236 10.0114C15.9252 10.0111 15.9267 10.0107 15.9277 10.0106H15.9293ZM7.08325 5.43699C5.69026 6.32924 4.73297 7.84026 4.60034 9.58331H5.20825C6.24379 9.58331 7.08325 8.74385 7.08325 7.70831V5.43699ZM11.2499 13.7068C11.2499 13.8694 11.2707 14.0182 11.3053 14.1553C11.7943 13.6295 12.4208 13.0647 13.1339 12.6872C13.4389 12.5256 13.8179 12.6425 13.9794 12.9476C14.1407 13.2526 14.024 13.6308 13.719 13.7923C13.1179 14.1105 12.5546 14.6294 12.1003 15.1367C12.4308 15.3123 12.8508 15.4166 13.3333 15.4166C13.6384 15.4166 13.934 15.2499 14.2333 14.8315C14.5357 14.4089 14.7771 13.8112 14.9617 13.1624C15.1388 12.5398 15.2517 11.9107 15.3214 11.4249C14.8308 11.5469 14.1892 11.727 13.553 11.9661C12.8991 12.2119 12.2877 12.507 11.8505 12.8401C11.4006 13.183 11.2499 13.4751 11.2499 13.7068ZM8.74992 11.6666C8.74992 12.618 8.45579 13.539 8.18107 14.1984C8.05261 14.5067 7.92305 14.7674 7.82137 14.9601C8.04208 15.0572 8.27006 15.141 8.50496 15.2083C8.83673 15.3033 9.02873 15.6488 8.93384 15.9806C8.83883 16.3124 8.49329 16.5043 8.16154 16.4095C7.84457 16.3187 7.53681 16.2055 7.24113 16.0709C4.9372 15.0224 3.33325 12.699 3.33325 9.99998C3.33325 6.31808 6.31802 3.33331 9.99992 3.33331C12.3229 3.33331 14.3681 4.52221 15.5606 6.32159C15.9314 6.88103 16.22 7.50032 16.4094 8.1616C16.5043 8.49335 16.3123 8.83889 15.9805 8.9339C15.6488 9.02879 15.3033 8.83679 15.2083 8.50503C15.0626 7.99664 14.8436 7.51903 14.5645 7.08331H12.4999C11.9595 7.08331 11.4449 7.54372 11.3012 8.24461C11.1441 9.01103 10.8756 9.56219 10.5321 9.97557C10.1912 10.3858 9.80778 10.6212 9.50269 10.7926C9.16404 10.9829 9.01076 11.058 8.89559 11.1767C8.82929 11.2451 8.74992 11.3547 8.74992 11.6666ZM8.33325 7.70831C8.33325 9.4342 6.93414 10.8333 5.20825 10.8333H4.64754C4.8672 12.2558 5.64007 13.4957 6.74064 14.3262C6.82348 14.1663 6.92652 13.9596 7.0271 13.7182C7.27318 13.1277 7.49992 12.3819 7.49992 11.6666C7.49992 11.0829 7.6713 10.6437 7.99797 10.3068C8.27587 10.0202 8.65855 9.83337 8.89071 9.70294C9.15639 9.55368 9.37869 9.40871 9.57104 9.17723C9.76083 8.94883 9.95302 8.59605 10.0764 7.99396C10.3023 6.89152 11.1994 5.83331 12.4999 5.83331H13.4594C12.5206 5.05291 11.3153 4.58331 9.99992 4.58331C9.41832 4.58331 8.85837 4.67569 8.33325 4.84536V7.70831Z" fill="#070628"></path>
</svg>