<svg width="24" height="24" viewBox="0 0 24 24" fill="none" xmlns="http://www.w3.org/2000/svg">
<path d="M16.2496 4C16.4486 4 16.6393 4.07907 16.7799 4.21973C16.9206 4.36038 16.9996 4.55109 16.9996 4.75V7.25C16.9996 7.66421 16.6639 8 16.2496 8H7.74965C7.55073 8 7.36003 7.92093 7.21937 7.78027C7.07872 7.63962 6.99965 7.44891 6.99965 7.25V4.75C6.99965 4.33579 7.33543 4 7.74965 4H16.2496ZM8.49965 6.5H15.4996V5.5H8.49965V6.5Z" fill="#070628"></path>
<path d="M6.01465 17.25V12.9033C6.01465 12.1139 6.35414 11.3619 6.94629 10.8398L8 9.91113V7.25C8 6.83579 8.33579 6.5 8.75 6.5H15.25C15.4488 6.50009 15.6397 6.57916 15.7803 6.71973C15.9208 6.86036 16 7.05117 16 7.25V9.91016L17.0605 10.8379C17.6573 11.36 17.9999 12.1143 18 12.9072V17.25C18 18.7687 16.7686 19.9998 15.25 20H8.76465C7.24587 20 6.01465 18.7688 6.01465 17.25ZM7.51465 17.25C7.51465 17.9404 8.07429 18.5 8.76465 18.5H15.25C15.9402 18.4998 16.5 17.9402 16.5 17.25V12.9072C16.4999 12.547 16.3443 12.2041 16.0732 11.9668L14.7559 10.8145C14.5931 10.672 14.5 10.4663 14.5 10.25V8H9.5V10.25C9.5 10.4652 9.4074 10.6701 9.24609 10.8125L7.93848 11.9658C7.66932 12.2031 7.51465 12.5445 7.51465 12.9033V17.25Z" fill="#070628"></path>
<path d="M13.2496 12C13.6639 12 13.9996 12.3358 13.9996 12.75V16.25C13.9996 16.6642 13.6639 17 13.2496 17H6.99965C6.58543 17 6.24965 16.6642 6.24965 16.25C6.24965 15.8358 6.58543 15.5 6.99965 15.5H12.4996V13.5H6.99965C6.58543 13.5 6.24965 13.1642 6.24965 12.75C6.24965 12.3358 6.58543 12 6.99965 12H13.2496Z" fill="#070628"></path>
</svg>