<svg width="20" height="20" viewBox="0 0 20 20" fill="none" xmlns="http://www.w3.org/2000/svg">
<path d="M9.99967 13.3334C11.683 13.3334 12.9036 13.9085 13.7049 14.4955C14.1031 14.7872 14.3961 15.0806 14.592 15.3044C14.69 15.4164 14.7643 15.5119 14.8158 15.5819C14.8415 15.6169 14.8614 15.6459 14.876 15.6674C14.8831 15.6779 14.8894 15.6865 14.8939 15.6934C14.8961 15.6967 14.898 15.6999 14.8996 15.7024L14.902 15.7056L14.9028 15.7072C14.9003 15.7092 14.8673 15.7314 14.4536 15.9921L14.9036 15.7089C15.0874 16.0009 14.9995 16.3867 14.7075 16.5707C14.4156 16.7544 14.0297 16.6671 13.8457 16.3754L13.8473 16.377C13.8473 16.377 13.8453 16.3739 13.8424 16.3697C13.8363 16.3606 13.8251 16.3443 13.8091 16.3225C13.7768 16.2785 13.724 16.2112 13.6512 16.128C13.5053 15.9612 13.2786 15.7337 12.966 15.5046C12.3454 15.0499 11.3787 14.5834 9.99967 14.5834C8.6207 14.5834 7.65396 15.0499 7.03337 15.5046C6.72071 15.7337 6.49405 15.9612 6.34814 16.128C6.27542 16.2111 6.22338 16.2785 6.19108 16.3225C6.17495 16.3444 6.16308 16.3606 6.1569 16.3697C6.15404 16.3739 6.15202 16.3778 6.15202 16.3778L6.15283 16.3762C5.96873 16.6676 5.58363 16.7543 5.29183 16.5707C4.99988 16.3867 4.91196 16.0009 5.0957 15.7089L5.54574 15.9921C5.13042 15.7304 5.09881 15.7098 5.09652 15.708L5.09733 15.7056L5.09977 15.7024C5.10132 15.6999 5.10329 15.6967 5.10547 15.6934C5.10998 15.6865 5.11619 15.6779 5.12337 15.6674C5.13791 15.6459 5.15787 15.6169 5.18359 15.5819C5.23503 15.5119 5.30936 15.4164 5.40739 15.3044C5.60328 15.0806 5.89627 14.7872 6.29443 14.4955C7.09571 13.9085 8.31631 13.3334 9.99967 13.3334ZM4.81576 12.2714C5.11466 12.0988 5.49683 12.2012 5.66943 12.5C5.84202 12.799 5.73967 13.1811 5.44076 13.3537L5.08024 13.5621C4.78136 13.7346 4.39919 13.6322 4.22656 13.3334C4.05397 13.0344 4.15631 12.6523 4.45524 12.4797L4.81576 12.2714ZM14.3299 12.5C14.5025 12.2011 14.8847 12.0988 15.1836 12.2714L15.5441 12.4797C15.843 12.6523 15.946 13.0345 15.7736 13.3334C15.601 13.6323 15.218 13.7346 14.9191 13.5621L14.5586 13.3537C14.2597 13.1811 14.1573 12.799 14.3299 12.5ZM11.2497 10C11.2497 9.30968 10.69 8.75004 9.99967 8.75004C9.30933 8.75005 8.74967 9.30969 8.74967 10C8.74967 10.6904 9.30933 11.25 9.99967 11.25C10.69 11.25 11.2497 10.6904 11.2497 10ZM4.37467 9.37504C4.71985 9.37504 4.99967 9.65486 4.99967 10C4.99967 10.3452 4.71985 10.625 4.37467 10.625H3.95801C3.61283 10.625 3.33302 10.3452 3.33301 10C3.33301 9.65486 3.61283 9.37504 3.95801 9.37504H4.37467ZM16.0413 9.37504C16.3865 9.37504 16.6663 9.65489 16.6663 10C16.6663 10.3452 16.3865 10.625 16.0413 10.625H15.6247C15.2795 10.625 14.9997 10.3452 14.9997 10C14.9997 9.65492 15.2796 9.3751 15.6247 9.37504H16.0413ZM4.22656 6.66671C4.3992 6.3679 4.78136 6.26547 5.08024 6.43803L5.44076 6.64636C5.73969 6.81895 5.84202 7.20111 5.66943 7.50004C5.49683 7.79893 5.11467 7.9013 4.81576 7.72872L4.45524 7.52039C4.15631 7.3478 4.05397 6.96564 4.22656 6.66671ZM14.9191 6.43803C15.218 6.26544 15.601 6.36777 15.7736 6.66671C15.946 6.96561 15.843 7.34784 15.5441 7.52039L15.1836 7.72872C14.8847 7.90126 14.5025 7.7989 14.3299 7.50004C14.1573 7.20115 14.2597 6.81898 14.5586 6.64636L14.9191 6.43803ZM6.66634 4.22693C6.96527 4.05434 7.34743 4.15667 7.52002 4.45561L7.72835 4.81612C7.90093 5.11503 7.79855 5.49719 7.49967 5.6698C7.20074 5.84239 6.81858 5.74005 6.646 5.44112L6.43766 5.08061C6.2651 4.78172 6.36752 4.39956 6.66634 4.22693ZM12.4793 4.45561C12.6519 4.15667 13.0341 4.05434 13.333 4.22693C13.6318 4.39956 13.7342 4.78173 13.5617 5.08061L13.3534 5.44112C13.1808 5.74003 12.7986 5.84238 12.4997 5.6698C12.2008 5.49719 12.0984 5.11503 12.271 4.81612L12.4793 4.45561ZM9.37467 4.37504V3.95837C9.37467 3.6132 9.65451 3.33339 9.99967 3.33337C10.3449 3.33337 10.6247 3.6132 10.6247 3.95837V4.37504C10.6247 4.72022 10.3449 5.00004 9.99967 5.00004C9.65451 5.00003 9.37467 4.72021 9.37467 4.37504ZM12.4997 10C12.4997 11.3808 11.3804 12.5 9.99967 12.5C8.61897 12.5 7.49967 11.3807 7.49967 10C7.49967 8.61934 8.61897 7.50005 9.99967 7.50004C11.3804 7.50004 12.4997 8.61933 12.4997 10Z" fill="#070628"></path>
</svg>