<svg width="20" height="20" viewBox="0 0 20 20" fill="none" xmlns="http://www.w3.org/2000/svg">
<path d="M15.4163 5.62504C15.4163 5.04974 14.95 4.58337 14.3747 4.58337H5.62467C5.04938 4.58337 4.58301 5.04974 4.58301 5.62504V14.375C4.58301 14.9503 5.04938 15.4167 5.62467 15.4167H14.3747C14.95 15.4167 15.4163 14.9503 15.4163 14.375V5.62504ZM16.6663 14.375C16.6663 15.6407 15.6403 16.6667 14.3747 16.6667H5.62467C4.35902 16.6667 3.33301 15.6407 3.33301 14.375V5.62504C3.33301 4.35939 4.35902 3.33337 5.62467 3.33337H14.3747C15.6403 3.33337 16.6663 4.35939 16.6663 5.62504V14.375Z" fill="#070628"></path>
<path d="M7.81462 6.7489C8.00953 6.63768 8.24966 6.63962 8.44287 6.75378L13.0262 9.46212C13.2164 9.5746 13.333 9.7791 13.333 10C13.333 10.221 13.2164 10.4255 13.0262 10.538L8.44287 13.2463C8.24966 13.3605 8.00953 13.3624 7.81462 13.2512C7.61984 13.1399 7.49967 12.9327 7.49967 12.7084V7.29171C7.49967 7.06738 7.61984 6.86016 7.81462 6.7489ZM8.74967 11.613L11.4792 10L8.74967 8.38627V11.613Z" fill="#070628"></path>
</svg>