<svg width="24" height="24" viewBox="0 0 24 24" fill="none" xmlns="http://www.w3.org/2000/svg">
<path d="M18.5 9.75C18.5 9.05964 17.9404 8.5 17.25 8.5H6.75C6.05964 8.5 5.5 9.05964 5.5 9.75V17.25C5.5 17.9404 6.05964 18.5 6.75 18.5H17.25C17.9404 18.5 18.5 17.9404 18.5 17.25V9.75ZM20 17.25C20 18.7688 18.7688 20 17.25 20H6.75C5.23122 20 4 18.7688 4 17.25V9.75C4 8.23122 5.23122 7 6.75 7H17.25C18.7688 7 20 8.23122 20 9.75V17.25Z" fill="#070628"></path>
<path d="M14.5 18.75V6.75C14.5 6.05964 13.9404 5.5 13.25 5.5H10.75C10.0596 5.5 9.5 6.05964 9.5 6.75V18.75C9.5 19.1642 9.16421 19.5 8.75 19.5C8.33579 19.5 8 19.1642 8 18.75V6.75C8 5.23122 9.23122 4 10.75 4H13.25C14.7688 4 16 5.23122 16 6.75V18.75C16 19.1642 15.6642 19.5 15.25 19.5C14.8358 19.5 14.5 19.1642 14.5 18.75Z" fill="#070628"></path>
</svg>