<svg width="20" height="20" viewBox="0 0 20 20" fill="none" xmlns="http://www.w3.org/2000/svg">
<path d="M15.4166 5.62504C15.4166 5.04974 14.9502 4.58337 14.3749 4.58337H5.62492C5.04962 4.58337 4.58325 5.04974 4.58325 5.62504V14.375C4.58325 14.9503 5.04962 15.4167 5.62492 15.4167H14.3749C14.9502 15.4167 15.4166 14.9503 15.4166 14.375V5.62504ZM16.6666 14.375C16.6666 15.6407 15.6406 16.6667 14.3749 16.6667H5.62492C4.35927 16.6667 3.33325 15.6407 3.33325 14.375V5.62504C3.33325 4.35939 4.35927 3.33337 5.62492 3.33337H14.3749C15.6406 3.33337 16.6666 4.35939 16.6666 5.62504V14.375Z" fill="#070628"></path>
<path d="M6.66659 12.7084V8.12504C6.66659 7.77986 6.94641 7.50004 7.29159 7.50004C7.63676 7.50004 7.91659 7.77986 7.91659 8.12504V12.7084C7.91659 13.0536 7.63676 13.3334 7.29159 13.3334C6.94641 13.3334 6.66659 13.0536 6.66659 12.7084Z" fill="#070628"></path>
<path d="M12.0833 12.7084V8.12504C12.0833 7.77986 12.3631 7.50004 12.7083 7.50004C13.0534 7.50004 13.3333 7.77986 13.3333 8.12504V12.7084C13.3333 13.0536 13.0534 13.3334 12.7083 13.3334C12.3631 13.3334 12.0833 13.0536 12.0833 12.7084Z" fill="#070628"></path>
<path d="M9.37492 12.7084V10.625C9.37492 10.2799 9.65474 10 9.99992 10C10.3451 10 10.6249 10.2799 10.6249 10.625V12.7084C10.6249 13.0536 10.3451 13.3334 9.99992 13.3334C9.65474 13.3334 9.37492 13.0536 9.37492 12.7084Z" fill="#070628"></path>
</svg>