<svg width="24" height="24" viewBox="0 0 24 24" fill="none" xmlns="http://www.w3.org/2000/svg">
<path d="M16.7197 6.21973C17.0126 5.92684 17.4874 5.92684 17.7803 6.21973C18.0732 6.51262 18.0732 6.98738 17.7803 7.28028L7.28028 17.7803C6.98738 18.0732 6.51262 18.0732 6.21973 17.7803C5.92684 17.4874 5.92684 17.0126 6.21973 16.7197L16.7197 6.21973Z" fill="#070628"></path>
<path d="M6.21973 6.21973C6.51262 5.92684 6.98738 5.92684 7.28028 6.21973L17.7803 16.7197C18.0732 17.0126 18.0732 17.4874 17.7803 17.7803C17.4874 18.0732 17.0126 18.0732 16.7197 17.7803L6.21973 7.28028C5.92684 6.98738 5.92684 6.51262 6.21973 6.21973Z" fill="#070628"></path>
</svg>