<svg width="20" height="20" viewBox="0 0 20 20" fill="none" xmlns="http://www.w3.org/2000/svg">
<path d="M15.4168 7.29171C15.4168 6.71641 14.9505 6.25004 14.3752 6.25004H5.62516C5.04987 6.25004 4.5835 6.71641 4.5835 7.29171V14.375C4.5835 14.9503 5.04987 15.4167 5.62516 15.4167H14.3752C14.9505 15.4167 15.4168 14.9503 15.4168 14.375V7.29171ZM16.6668 14.375C16.6668 15.6407 15.6408 16.6667 14.3752 16.6667H5.62516C4.35951 16.6667 3.3335 15.6407 3.3335 14.375V7.29171C3.3335 6.02606 4.35951 5.00004 5.62516 5.00004H14.3752C15.6408 5.00004 16.6668 6.02605 16.6668 7.29171V14.375Z" fill="#070628"></path>
<path d="M6.04183 6.87504V3.95837C6.04183 3.6132 6.32165 3.33337 6.66683 3.33337C7.01201 3.33337 7.29183 3.6132 7.29183 3.95837V6.87504C7.29183 7.22022 7.01201 7.50004 6.66683 7.50004C6.32165 7.50004 6.04183 7.22022 6.04183 6.87504Z" fill="#070628"></path>
<path d="M12.7085 6.87504V3.95837C12.7085 3.6132 12.9883 3.33337 13.3335 3.33337C13.6787 3.33337 13.9585 3.6132 13.9585 3.95837V6.87504C13.9585 7.22022 13.6787 7.50004 13.3335 7.50004C12.9883 7.50004 12.7085 7.22022 12.7085 6.87504Z" fill="#070628"></path>
<path d="M13.5418 8.33337C13.887 8.33337 14.1668 8.6132 14.1668 8.95837C14.1668 9.30355 13.887 9.58337 13.5418 9.58337H6.4585C6.11332 9.58337 5.8335 9.30355 5.8335 8.95837C5.8335 8.6132 6.11332 8.33337 6.4585 8.33337H13.5418Z" fill="#070628"></path>
</svg>