<svg width="20" height="20" viewBox="0 0 20 20" fill="none" xmlns="http://www.w3.org/2000/svg">
<path d="M3.33331 14.3757V5.62565C3.33331 4.36 4.35933 3.33398 5.62498 3.33398H10.625C10.7907 3.33398 10.9497 3.39988 11.0669 3.51709L14.8169 7.26709C14.9341 7.3843 15 7.54322 15 7.70898V8.54232C15 8.8875 14.7202 9.16732 14.375 9.16732C14.0298 9.16732 13.75 8.8875 13.75 8.54232V8.33398H11.4583C10.6529 8.33398 9.99998 7.68107 9.99998 6.87565V4.58398H5.62498C5.04968 4.58398 4.58331 5.05035 4.58331 5.62565V14.3757C4.58331 14.9509 5.04968 15.4173 5.62498 15.4173H8.54165C8.88682 15.4173 9.16665 15.6971 9.16665 16.0423C9.16665 16.3875 8.88682 16.6673 8.54165 16.6673H5.62498C4.35933 16.6673 3.33331 15.6413 3.33331 14.3757ZM13.632 10.8454C13.7486 10.8229 13.8701 10.834 13.9819 10.8787L16.2736 11.7951C16.5108 11.89 16.6665 12.1199 16.6666 12.3753H16.0416C16.6666 12.3753 16.6666 12.3753 16.6666 12.3753V12.3924C16.6666 12.4015 16.6662 12.4141 16.6658 12.4299C16.6652 12.4613 16.6642 12.5056 16.6618 12.5609C16.6568 12.6715 16.6469 12.8274 16.6276 13.0133C16.5892 13.382 16.5114 13.8842 16.3517 14.3952C16.0471 15.3699 15.3344 16.6673 13.75 16.6673C12.1655 16.6673 11.4528 15.3699 11.1483 14.3952C10.9886 13.8842 10.9108 13.382 10.8724 13.0133C10.853 12.8274 10.8431 12.6715 10.8382 12.5609C10.8357 12.5056 10.8348 12.4613 10.8341 12.4299C10.8338 12.4141 10.8334 12.4015 10.8333 12.3924V12.3761C10.8334 12.1207 10.9892 11.89 11.2264 11.7951L13.518 10.8787L13.632 10.8454ZM12.1085 12.7879C12.1113 12.8185 12.1124 12.8508 12.1159 12.884C12.1491 13.2027 12.2146 13.6169 12.3413 14.0225C12.6096 14.8811 13.0428 15.4173 13.75 15.4173C14.4572 15.4173 14.8903 14.8811 15.1587 14.0225C15.2854 13.6169 15.3509 13.2027 15.3841 12.884C15.3875 12.8508 15.3878 12.8185 15.3906 12.7879L13.75 12.1312L12.1085 12.7879ZM11.25 6.87565C11.25 6.99071 11.3433 7.08398 11.4583 7.08398H12.8662L11.25 5.46777V6.87565Z" fill="#070628"></path>
</svg>